<svg width="405" height="279" viewBox="0 0 405 279" fill="none" xmlns="http://www.w3.org/2000/svg">
<path d="M109.711 2C118.903 26.2769 123.484 55.6627 117.053 81.1464C109.26 112.029 75.2344 137.852 42.6577 130.383C22.2362 125.701 4.20538 101.355 2.05878 80.7145C0.276048 63.5729 39.5991 76.6526 44.9792 78.6629C65.6124 86.3728 83.8348 98.9993 101.937 111.272C135.44 133.986 167.875 159.052 203.65 178.217C228.937 191.763 255.625 201.945 283.822 207.424C310.137 212.538 343.397 216.14 365.56 197.274C394.636 172.523 396.496 120.09 373.064 91.2961C367.985 85.0545 360.084 77.8268 351.739 76.4494C341.131 74.6987 336.7 82.6622 334.974 90.2771C326.618 127.145 359.5 197.5 369.5 231.5" stroke="black" stroke-width="3" stroke-linecap="round"/>
<path d="M369.389 231C373.5 245 378.266 258.92 384.71 272.031C387.693 278.099 375.834 262.652 374.848 261.286C374.29 260.512 367.821 249.648 366.28 250.241C362.008 251.884 376.81 270.974 378.075 272.385C385.393 280.546 385.68 271.327 388.066 264.508C391.14 255.722 394.659 247.25 402.709 242.311" stroke="black" stroke-width="3" stroke-linecap="round"/>
</svg>
