<svg width="48" height="49" viewBox="0 0 48 49" fill="none" xmlns="http://www.w3.org/2000/svg">
<g clip-path="url(#clip0_1_164)">
<path d="M18 38.5C8 41.5 8 33.5 4 32.5M32 44.5V36.76C32.075 35.8063 31.9462 34.8476 31.622 33.9476C31.2979 33.0476 30.7859 32.2268 30.12 31.54C36.4 30.84 43 28.46 43 17.54C42.9995 14.7477 41.9254 12.0624 40 10.04C40.9117 7.59701 40.8472 4.8967 39.82 2.5C39.82 2.5 37.46 1.8 32 5.46C27.416 4.21764 22.584 4.21764 18 5.46C12.54 1.8 10.18 2.5 10.18 2.5C9.15275 4.8967 9.08829 7.59701 10 10.04C8.06025 12.0774 6.98505 14.7869 7 17.6C7 28.44 13.6 30.82 19.88 31.6C19.222 32.2799 18.7145 33.0908 18.3906 33.9798C18.0667 34.8689 17.9336 35.8161 18 36.76V44.5" stroke="#1E1E1E" stroke-width="4" stroke-linecap="round" stroke-linejoin="round"/>
</g>
<defs>
<clipPath id="clip0_1_164">
<rect width="48" height="48" fill="white" transform="translate(0 0.5)"/>
</clipPath>
</defs>
</svg>
