<svg width="331" height="116" viewBox="0 0 331 116" fill="none" xmlns="http://www.w3.org/2000/svg">
<path d="M62 0L80.2693 16.7395L105.841 16.9878L106.106 40.9094L124 58L106.106 75.0906L105.841 99.0122L80.2693 99.2605L62 116L43.7307 99.2605L18.1594 99.0122L17.894 75.0906L0 58L17.894 40.9094L18.1594 16.9878L43.7307 16.7395L62 0Z" fill="#DB9421"/>
<path d="M134.528 52V22.9091H140.679V34.9119H153.165V22.9091H159.301V52H153.165V39.983H140.679V52H134.528ZM146.915 60.1676C146.015 60.1676 145.243 59.8693 144.599 59.2727C143.955 58.6761 143.634 57.9564 143.634 57.1136C143.634 56.2708 143.955 55.5511 144.599 54.9545C145.243 54.358 146.015 54.0597 146.915 54.0597C147.814 54.0597 148.581 54.358 149.216 54.9545C149.86 55.5511 150.182 56.2708 150.182 57.1136C150.182 57.9564 149.86 58.6761 149.216 59.2727C148.581 59.8693 147.814 60.1676 146.915 60.1676ZM170.48 52.4119C169.088 52.4119 167.848 52.1705 166.759 51.6875C165.67 51.1951 164.808 50.4706 164.173 49.5142C163.548 48.5483 163.236 47.3456 163.236 45.9062C163.236 44.6941 163.458 43.6761 163.903 42.8523C164.348 42.0284 164.955 41.3655 165.722 40.8636C166.489 40.3617 167.36 39.983 168.335 39.7273C169.32 39.4716 170.352 39.2917 171.432 39.1875C172.701 39.0549 173.723 38.9318 174.5 38.8182C175.277 38.6951 175.84 38.5152 176.19 38.2784C176.541 38.0417 176.716 37.6913 176.716 37.2273V37.142C176.716 36.2424 176.432 35.5464 175.864 35.054C175.305 34.5616 174.509 34.3153 173.477 34.3153C172.388 34.3153 171.522 34.5568 170.878 35.0398C170.234 35.5133 169.808 36.1098 169.599 36.8295L164.003 36.375C164.287 35.0492 164.846 33.9034 165.679 32.9375C166.512 31.9621 167.587 31.214 168.903 30.6932C170.229 30.1629 171.763 29.8977 173.506 29.8977C174.718 29.8977 175.878 30.0398 176.986 30.3239C178.103 30.608 179.093 31.0483 179.955 31.6449C180.826 32.2415 181.512 33.0085 182.014 33.946C182.516 34.8741 182.767 35.9867 182.767 37.2841V52H177.028V48.9744H176.858C176.508 49.6562 176.039 50.2576 175.452 50.7784C174.865 51.2898 174.159 51.6922 173.335 51.9858C172.511 52.2699 171.56 52.4119 170.48 52.4119ZM172.213 48.2358C173.103 48.2358 173.889 48.0606 174.571 47.7102C175.253 47.3504 175.788 46.8674 176.176 46.2614C176.564 45.6553 176.759 44.9687 176.759 44.2017V41.8864C176.569 42.0095 176.309 42.1231 175.977 42.2273C175.655 42.322 175.291 42.4119 174.884 42.4972C174.476 42.5729 174.069 42.6439 173.662 42.7102C173.255 42.767 172.885 42.8191 172.554 42.8665C171.844 42.9706 171.223 43.1364 170.693 43.3636C170.163 43.5909 169.751 43.8987 169.457 44.2869C169.164 44.6657 169.017 45.1392 169.017 45.7074C169.017 46.5312 169.315 47.161 169.912 47.5966C170.518 48.0227 171.285 48.2358 172.213 48.2358ZM199.195 30.1818V34.7273H185.729V30.1818H199.195ZM188.811 52V28.6051C188.811 27.0237 189.119 25.7121 189.734 24.6705C190.359 23.6288 191.212 22.8475 192.291 22.3267C193.371 21.8059 194.597 21.5455 195.97 21.5455C196.898 21.5455 197.746 21.6165 198.513 21.7585C199.289 21.9006 199.867 22.0284 200.246 22.142L199.166 26.6875C198.929 26.6117 198.636 26.5407 198.286 26.4744C197.945 26.4081 197.594 26.375 197.234 26.375C196.344 26.375 195.724 26.5833 195.374 27C195.023 27.4072 194.848 27.9801 194.848 28.7188V52H188.811ZM208.332 52.4119C206.94 52.4119 205.699 52.1705 204.61 51.6875C203.521 51.1951 202.659 50.4706 202.025 49.5142C201.4 48.5483 201.087 47.3456 201.087 45.9062C201.087 44.6941 201.31 43.6761 201.755 42.8523C202.2 42.0284 202.806 41.3655 203.573 40.8636C204.34 40.3617 205.211 39.983 206.187 39.7273C207.172 39.4716 208.204 39.2917 209.283 39.1875C210.552 39.0549 211.575 38.9318 212.352 38.8182C213.128 38.6951 213.692 38.5152 214.042 38.2784C214.392 38.0417 214.567 37.6913 214.567 37.2273V37.142C214.567 36.2424 214.283 35.5464 213.715 35.054C213.156 34.5616 212.361 34.3153 211.329 34.3153C210.24 34.3153 209.373 34.5568 208.729 35.0398C208.085 35.5133 207.659 36.1098 207.451 36.8295L201.854 36.375C202.138 35.0492 202.697 33.9034 203.531 32.9375C204.364 31.9621 205.439 31.214 206.755 30.6932C208.081 30.1629 209.615 29.8977 211.357 29.8977C212.569 29.8977 213.729 30.0398 214.837 30.3239C215.955 30.608 216.944 31.0483 217.806 31.6449C218.677 32.2415 219.364 33.0085 219.866 33.946C220.368 34.8741 220.619 35.9867 220.619 37.2841V52H214.88V48.9744H214.71C214.359 49.6562 213.89 50.2576 213.303 50.7784C212.716 51.2898 212.011 51.6922 211.187 51.9858C210.363 52.2699 209.411 52.4119 208.332 52.4119ZM210.065 48.2358C210.955 48.2358 211.741 48.0606 212.423 47.7102C213.104 47.3504 213.639 46.8674 214.028 46.2614C214.416 45.6553 214.61 44.9687 214.61 44.2017V41.8864C214.421 42.0095 214.16 42.1231 213.829 42.2273C213.507 42.322 213.142 42.4119 212.735 42.4972C212.328 42.5729 211.921 42.6439 211.513 42.7102C211.106 42.767 210.737 42.8191 210.406 42.8665C209.695 42.9706 209.075 43.1364 208.545 43.3636C208.014 43.5909 207.603 43.8987 207.309 44.2869C207.015 44.6657 206.869 45.1392 206.869 45.7074C206.869 46.5312 207.167 47.161 207.763 47.5966C208.37 48.0227 209.137 48.2358 210.065 48.2358ZM236.918 30.1818V34.7273H223.779V30.1818H236.918ZM226.762 24.9545H232.813V45.2955C232.813 45.8542 232.898 46.2898 233.069 46.6023C233.239 46.9053 233.476 47.1184 233.779 47.2415C234.092 47.3646 234.451 47.4261 234.859 47.4261C235.143 47.4261 235.427 47.4025 235.711 47.3551C235.995 47.2983 236.213 47.2557 236.364 47.2273L237.316 51.7301C237.013 51.8248 236.587 51.9337 236.038 52.0568C235.488 52.1894 234.821 52.2699 234.035 52.2983C232.576 52.3551 231.298 52.161 230.2 51.7159C229.111 51.2708 228.263 50.5795 227.657 49.642C227.051 48.7045 226.753 47.5208 226.762 46.0909V24.9545ZM247.38 39.3864V52H241.329V22.9091H247.21V34.0312H247.465C247.958 32.7434 248.753 31.7348 249.852 31.0057C250.95 30.267 252.328 29.8977 253.985 29.8977C255.5 29.8977 256.821 30.2292 257.948 30.892C259.085 31.5455 259.965 32.4877 260.59 33.7188C261.225 34.9403 261.537 36.4034 261.528 38.108V52H255.477V39.1875C255.486 37.8428 255.145 36.7964 254.454 36.0483C253.772 35.3002 252.816 34.9261 251.585 34.9261C250.761 34.9261 250.031 35.1013 249.397 35.4517C248.772 35.8021 248.28 36.3134 247.92 36.9858C247.569 37.6487 247.389 38.4489 247.38 39.3864ZM272.511 52.4119C271.119 52.4119 269.879 52.1705 268.79 51.6875C267.701 51.1951 266.839 50.4706 266.205 49.5142C265.58 48.5483 265.267 47.3456 265.267 45.9062C265.267 44.6941 265.49 43.6761 265.935 42.8523C266.38 42.0284 266.986 41.3655 267.753 40.8636C268.52 40.3617 269.391 39.983 270.366 39.7273C271.351 39.4716 272.384 39.2917 273.463 39.1875C274.732 39.0549 275.755 38.9318 276.531 38.8182C277.308 38.6951 277.871 38.5152 278.222 38.2784C278.572 38.0417 278.747 37.6913 278.747 37.2273V37.142C278.747 36.2424 278.463 35.5464 277.895 35.054C277.336 34.5616 276.541 34.3153 275.509 34.3153C274.42 34.3153 273.553 34.5568 272.909 35.0398C272.265 35.5133 271.839 36.1098 271.631 36.8295L266.034 36.375C266.318 35.0492 266.877 33.9034 267.71 32.9375C268.544 31.9621 269.618 31.214 270.935 30.6932C272.26 30.1629 273.795 29.8977 275.537 29.8977C276.749 29.8977 277.909 30.0398 279.017 30.3239C280.134 30.608 281.124 31.0483 281.986 31.6449C282.857 32.2415 283.544 33.0085 284.045 33.946C284.547 34.8741 284.798 35.9867 284.798 37.2841V52H279.06V48.9744H278.889C278.539 49.6562 278.07 50.2576 277.483 50.7784C276.896 51.2898 276.19 51.6922 275.366 51.9858C274.543 52.2699 273.591 52.4119 272.511 52.4119ZM274.244 48.2358C275.134 48.2358 275.92 48.0606 276.602 47.7102C277.284 47.3504 277.819 46.8674 278.207 46.2614C278.596 45.6553 278.79 44.9687 278.79 44.2017V41.8864C278.6 42.0095 278.34 42.1231 278.009 42.2273C277.687 42.322 277.322 42.4119 276.915 42.4972C276.508 42.5729 276.1 42.6439 275.693 42.7102C275.286 42.767 274.917 42.8191 274.585 42.8665C273.875 42.9706 273.255 43.1364 272.724 43.3636C272.194 43.5909 271.782 43.8987 271.489 44.2869C271.195 44.6657 271.048 45.1392 271.048 45.7074C271.048 46.5312 271.347 47.161 271.943 47.5966C272.549 48.0227 273.316 48.2358 274.244 48.2358ZM295.544 39.3864V52H289.493V22.9091H295.374V34.0312H295.629C296.122 32.7434 296.917 31.7348 298.016 31.0057C299.114 30.267 300.492 29.8977 302.149 29.8977C303.664 29.8977 304.985 30.2292 306.112 30.892C307.249 31.5455 308.129 32.4877 308.754 33.7188C309.389 34.9403 309.701 36.4034 309.692 38.108V52H303.641V39.1875C303.65 37.8428 303.309 36.7964 302.618 36.0483C301.936 35.3002 300.98 34.9261 299.749 34.9261C298.925 34.9261 298.196 35.1013 297.561 35.4517C296.936 35.8021 296.444 36.3134 296.084 36.9858C295.733 37.6487 295.554 38.4489 295.544 39.3864ZM160.196 81.0938H153.974C153.861 80.2888 153.629 79.5739 153.278 78.9489C152.928 78.3144 152.478 77.7746 151.929 77.3295C151.38 76.8845 150.745 76.5436 150.026 76.3068C149.315 76.0701 148.544 75.9517 147.71 75.9517C146.205 75.9517 144.893 76.3258 143.776 77.0739C142.658 77.8125 141.792 78.892 141.176 80.3125C140.561 81.7235 140.253 83.4375 140.253 85.4545C140.253 87.5284 140.561 89.2708 141.176 90.6818C141.801 92.0928 142.672 93.1581 143.79 93.8778C144.907 94.5975 146.2 94.9574 147.668 94.9574C148.491 94.9574 149.254 94.8485 149.955 94.6307C150.665 94.4129 151.295 94.0956 151.844 93.679C152.393 93.2528 152.848 92.7367 153.207 92.1307C153.577 91.5246 153.832 90.8333 153.974 90.0568L160.196 90.0852C160.035 91.4205 159.633 92.7083 158.989 93.9489C158.354 95.1799 157.497 96.2831 156.418 97.2585C155.348 98.2244 154.069 98.9915 152.582 99.5597C151.105 100.118 149.434 100.398 147.568 100.398C144.973 100.398 142.653 99.8106 140.608 98.6364C138.572 97.4621 136.962 95.7623 135.778 93.5369C134.604 91.3116 134.017 88.6174 134.017 85.4545C134.017 82.2822 134.614 79.5833 135.807 77.358C137 75.1326 138.619 73.4375 140.665 72.2727C142.71 71.0985 145.011 70.5114 147.568 70.5114C149.254 70.5114 150.816 70.7481 152.256 71.2216C153.705 71.6951 154.988 72.3864 156.105 73.2955C157.223 74.1951 158.132 75.2983 158.832 76.6051C159.543 77.9119 159.997 79.4081 160.196 81.0938ZM174.351 100.426C172.144 100.426 170.236 99.9574 168.626 99.0199C167.026 98.0729 165.79 96.7566 164.919 95.071C164.048 93.3759 163.612 91.411 163.612 89.1761C163.612 86.9223 164.048 84.9527 164.919 83.267C165.79 81.572 167.026 80.2557 168.626 79.3182C170.236 78.3712 172.144 77.8977 174.351 77.8977C176.557 77.8977 178.461 78.3712 180.061 79.3182C181.671 80.2557 182.911 81.572 183.783 83.267C184.654 84.9527 185.089 86.9223 185.089 89.1761C185.089 91.411 184.654 93.3759 183.783 95.071C182.911 96.7566 181.671 98.0729 180.061 99.0199C178.461 99.9574 176.557 100.426 174.351 100.426ZM174.379 95.7386C175.383 95.7386 176.221 95.4545 176.893 94.8864C177.566 94.3087 178.072 93.5227 178.413 92.5284C178.764 91.5341 178.939 90.4025 178.939 89.1335C178.939 87.8646 178.764 86.733 178.413 85.7386C178.072 84.7443 177.566 83.9583 176.893 83.3807C176.221 82.803 175.383 82.5142 174.379 82.5142C173.366 82.5142 172.514 82.803 171.822 83.3807C171.141 83.9583 170.625 84.7443 170.274 85.7386C169.933 86.733 169.763 87.8646 169.763 89.1335C169.763 90.4025 169.933 91.5341 170.274 92.5284C170.625 93.5227 171.141 94.3087 171.822 94.8864C172.514 95.4545 173.366 95.7386 174.379 95.7386ZM195.075 70.9091V100H189.024V70.9091H195.075ZM205.974 70.9091V100H199.923V70.9091H205.974ZM220.764 100.426C218.52 100.426 216.588 99.9716 214.969 99.0625C213.359 98.1439 212.118 96.8466 211.247 95.1705C210.376 93.4848 209.94 91.4915 209.94 89.1903C209.94 86.946 210.376 84.9763 211.247 83.2812C212.118 81.5862 213.345 80.2652 214.926 79.3182C216.517 78.3712 218.383 77.8977 220.523 77.8977C221.962 77.8977 223.302 78.1297 224.543 78.5938C225.793 79.0483 226.882 79.7348 227.81 80.6534C228.747 81.572 229.476 82.7273 229.997 84.1193C230.518 85.5019 230.778 87.1212 230.778 88.9773V90.6392H212.355V86.8892H225.082C225.082 86.018 224.893 85.2462 224.514 84.5739C224.135 83.9015 223.61 83.3759 222.938 82.9972C222.275 82.6089 221.503 82.4148 220.622 82.4148C219.704 82.4148 218.889 82.6278 218.179 83.054C217.478 83.4706 216.929 84.0341 216.531 84.7443C216.134 85.4451 215.93 86.2263 215.92 87.0881V90.6534C215.92 91.733 216.119 92.6657 216.517 93.4517C216.924 94.2377 217.497 94.8438 218.236 95.2699C218.974 95.696 219.85 95.9091 220.864 95.9091C221.536 95.9091 222.152 95.8144 222.71 95.625C223.269 95.4356 223.747 95.1515 224.145 94.7727C224.543 94.3939 224.846 93.9299 225.054 93.3807L230.651 93.75C230.366 95.0947 229.784 96.2689 228.903 97.2727C228.032 98.267 226.905 99.0436 225.523 99.6023C224.15 100.152 222.563 100.426 220.764 100.426ZM244.585 100.426C242.35 100.426 240.428 99.9527 238.818 99.0057C237.218 98.0492 235.987 96.7235 235.125 95.0284C234.273 93.3333 233.847 91.3826 233.847 89.1761C233.847 86.9413 234.277 84.9811 235.139 83.2955C236.01 81.6004 237.246 80.2794 238.847 79.3324C240.447 78.3759 242.35 77.8977 244.557 77.8977C246.46 77.8977 248.127 78.2434 249.557 78.9347C250.987 79.6259 252.118 80.5966 252.952 81.8466C253.785 83.0966 254.244 84.5644 254.33 86.25H248.619C248.458 85.161 248.032 84.285 247.341 83.6222C246.659 82.9498 245.764 82.6136 244.656 82.6136C243.719 82.6136 242.9 82.8693 242.199 83.3807C241.508 83.8826 240.968 84.6165 240.58 85.5824C240.191 86.5483 239.997 87.7178 239.997 89.0909C239.997 90.483 240.187 91.6667 240.565 92.642C240.954 93.6174 241.498 94.3608 242.199 94.8722C242.9 95.3835 243.719 95.6392 244.656 95.6392C245.348 95.6392 245.968 95.4972 246.517 95.2131C247.076 94.929 247.535 94.517 247.895 93.9773C248.264 93.428 248.506 92.7699 248.619 92.0028H254.33C254.235 93.6695 253.78 95.1373 252.966 96.4062C252.161 97.6657 251.048 98.6506 249.628 99.3608C248.207 100.071 246.527 100.426 244.585 100.426ZM269.809 78.1818V82.7273H256.67V78.1818H269.809ZM259.653 72.9545H265.704V93.2955C265.704 93.8542 265.789 94.2898 265.96 94.6023C266.13 94.9053 266.367 95.1184 266.67 95.2415C266.982 95.3646 267.342 95.4261 267.749 95.4261C268.033 95.4261 268.317 95.4025 268.602 95.3551C268.886 95.2983 269.103 95.2557 269.255 95.2273L270.207 99.7301C269.904 99.8248 269.478 99.9337 268.928 100.057C268.379 100.189 267.711 100.27 266.925 100.298C265.467 100.355 264.189 100.161 263.09 99.7159C262.001 99.2708 261.154 98.5795 260.548 97.642C259.942 96.7045 259.643 95.5208 259.653 94.0909V72.9545ZM273.751 100V78.1818H279.802V100H273.751ZM276.79 75.3693C275.891 75.3693 275.119 75.071 274.475 74.4744C273.841 73.8684 273.523 73.1439 273.523 72.3011C273.523 71.4678 273.841 70.7528 274.475 70.1562C275.119 69.5502 275.891 69.2472 276.79 69.2472C277.69 69.2472 278.457 69.5502 279.092 70.1562C279.736 70.7528 280.058 71.4678 280.058 72.3011C280.058 73.1439 279.736 73.8684 279.092 74.4744C278.457 75.071 277.69 75.3693 276.79 75.3693ZM304.99 78.1818L297.362 100H290.544L282.916 78.1818H289.308L293.839 93.7926H294.067L298.584 78.1818H304.99ZM317.327 100.426C315.082 100.426 313.151 99.9716 311.531 99.0625C309.921 98.1439 308.681 96.8466 307.81 95.1705C306.938 93.4848 306.503 91.4915 306.503 89.1903C306.503 86.946 306.938 84.9763 307.81 83.2812C308.681 81.5862 309.907 80.2652 311.489 79.3182C313.08 78.3712 314.945 77.8977 317.085 77.8977C318.525 77.8977 319.865 78.1297 321.105 78.5938C322.355 79.0483 323.444 79.7348 324.372 80.6534C325.31 81.572 326.039 82.7273 326.56 84.1193C327.08 85.5019 327.341 87.1212 327.341 88.9773V90.6392H308.918V86.8892H321.645C321.645 86.018 321.455 85.2462 321.077 84.5739C320.698 83.9015 320.172 83.3759 319.5 82.9972C318.837 82.6089 318.065 82.4148 317.185 82.4148C316.266 82.4148 315.452 82.6278 314.741 83.054C314.041 83.4706 313.491 84.0341 313.094 84.7443C312.696 85.4451 312.492 86.2263 312.483 87.0881V90.6534C312.483 91.733 312.682 92.6657 313.08 93.4517C313.487 94.2377 314.06 94.8438 314.798 95.2699C315.537 95.696 316.413 95.9091 317.426 95.9091C318.098 95.9091 318.714 95.8144 319.273 95.625C319.831 95.4356 320.31 95.1515 320.707 94.7727C321.105 94.3939 321.408 93.9299 321.616 93.3807L327.213 93.75C326.929 95.0947 326.347 96.2689 325.466 97.2727C324.595 98.267 323.468 99.0436 322.085 99.6023C320.712 100.152 319.126 100.426 317.327 100.426Z" fill="#61572B"/>
</svg>
