<svg width="325" height="424" viewBox="0 0 325 424" fill="none" xmlns="http://www.w3.org/2000/svg">
<path d="M59.1544 63.4154C59.1544 94.1455 59.1544 124.876 59.1544 155.606C59.1544 158.655 58.3343 163.096 59.1942 166.105C59.5494 167.349 67.1315 166.434 67.9042 166.344C76.0996 165.394 84.1968 162.704 92.1647 160.696C101.546 158.333 111.008 156.321 120.363 153.856C150.372 145.948 180.207 142.163 211.161 142.163C212.618 142.163 232.189 143.378 232.24 143.276C234.207 139.342 230.59 129.539 229.933 125.538C228.211 115.057 226.491 104.57 224.842 94.0792C223.649 86.4849 222.095 78.7538 220.229 71.2901C219.634 68.9091 218.924 65.9344 217.723 63.7733C216.088 60.8296 213.269 62.2228 209.729 61.8245C185.604 59.1104 160.943 60.5518 136.669 60.5518C124.012 60.5518 110.354 62.0473 97.8123 59.995C94.2544 59.4128 91.0218 58.5679 87.7899 57.1315C82.7606 54.8962 74.5129 58.8983 69.5746 59.7962C64.5487 60.71 61.4723 61.1826 57.0068 63.4154" stroke="black" stroke-width="3" stroke-linecap="round"/>
<path d="M57.0068 63.4154C57.0068 74.0629 53.5319 86.1668 47.7003 94.9144" stroke="black" stroke-width="3" stroke-linecap="round"/>
<path d="M59.8703 165.787C59.3219 171.82 55.2322 173.304 53.5 178.5" stroke="black" stroke-width="3" stroke-linecap="round"/>
<path d="M232 143.5C230.297 144.181 228.988 147.56 228 149C224.988 153.392 223.627 157.728 220.627 162.128C219.463 163.835 219.814 164.593 218 165.5" stroke="black" stroke-width="3" stroke-linecap="round"/>
<path d="M218 165.5C207.374 165.5 175.424 170.085 165 172M142.5 174.5C131.046 174.5 113.602 174.378 102.147 174.378C95.146 174.378 88.5046 174.131 81.6651 175.65C72.1074 177.774 62.7034 178.673 52.7115 178.673" stroke="black" stroke-width="3" stroke-linecap="round"/>
<path d="M52.7115 178.673C52.7115 168.391 51.256 158.097 50.5241 147.85C49.8997 139.109 49.848 130.462 49.848 121.681C49.848 114.19 47.5 102.49 47.5 95" stroke="black" stroke-width="3" stroke-linecap="round"/>
<path d="M170.117 97.6188C170.117 91.7499 173.634 82.5 181 82.5C186 82 191.028 89.7646 190.122 93.8405C189.178 98.0895 184.965 104.077 180.457 104.897C174.773 105.93 170.117 103.259 170.117 97.6188Z" stroke="black" stroke-width="3" stroke-linecap="round"/>
<path d="M175.128 84.1761C172.532 84.4645 170.193 91.0556 169.043 93.1247C167.993 95.0144 167.494 97.2967 166.537 99.2097" stroke="black" stroke-width="3" stroke-linecap="round"/>
<path d="M186.582 102.073C186.582 105.753 185.999 107.535 184.435 110.664" stroke="black" stroke-width="3" stroke-linecap="round"/>
<path d="M184.435 110.664C175.502 110.664 166.5 110.257 166.5 100" stroke="black" stroke-width="3" stroke-linecap="round"/>
<path d="M121.596 101.914C117.328 100.237 121 89.5 122.868 87.0396C125.225 82.3256 131.193 83.4602 135.595 83.4602C141.998 83.4602 146.21 89.5801 147.765 95.6303C150.443 106.045 126.63 103.892 121.596 101.914Z" stroke="black" stroke-width="3" stroke-linecap="round"/>
<path d="M147 100.5C144.374 103.603 142.83 105.635 140.5 109C139.709 110.143 139.579 110.961 138.5 111.5" stroke="black" stroke-width="3" stroke-linecap="round"/>
<path d="M120.5 92.5C118.5 96.5 114.278 98.8533 114.278 102.789" stroke="black" stroke-width="3" stroke-linecap="round"/>
<path d="M114.278 102.789C120.396 108.907 128.741 111.38 137.186 111.38" stroke="black" stroke-width="3" stroke-linecap="round"/>
<path d="M160.094 108.516C160.315 110.499 166.537 117.1 166.537 113.169C166.537 111.209 164.803 109.57 163.674 108.158C162.318 106.463 161.249 107.8 159.379 107.8" stroke="black" stroke-width="3" stroke-linecap="round"/>
<path d="M159.379 107.8C159.379 112.797 158.501 118.273 155.083 122.118" stroke="black" stroke-width="3" stroke-linecap="round"/>
<path d="M165.106 115.675C165.106 118.895 160.792 128.09 157.231 129.277" stroke="black" stroke-width="3" stroke-linecap="round"/>
<path d="M150.788 59.12C150.788 49.1712 151.457 39.0104 150.748 29.0926C150.452 24.9463 149.5 23.7325 149.5 19.5" stroke="black" stroke-width="3" stroke-linecap="round"/>
<path d="M151.504 19.0304C146.324 19.0304 132.478 21.6223 132.175 13.1442C132.081 10.5202 131.963 7.15859 133.05 4.71267C134.312 1.8739 136.014 2.3983 139.214 2.60478C142.3 2.80385 158.515 6.98565 157.191 12.9454C156.62 15.5166 152.385 20.7375 150.072 21.8939" stroke="black" stroke-width="3" stroke-linecap="round"/>
<path d="M143.629 163.639C143.629 177.02 142 200.659 142 214" stroke="black" stroke-width="3" stroke-linecap="round"/>
<path d="M163.674 165.071C163.674 173.619 166.473 183.035 168.287 191.36C169.266 195.849 172 203.404 172 208" stroke="black" stroke-width="3" stroke-linecap="round"/>
<path d="M92.8011 222.342C114.524 222.342 136.771 216.089 157.748 211.365C186.229 204.951 215.239 199.765 243.137 191.241C252.728 188.31 262.982 180.105 273.205 180.105" stroke="black" stroke-width="3" stroke-linecap="round"/>
<path d="M90.6534 223.774C90.6534 259.53 94.1893 295.552 100.835 330.68C103.599 345.289 107.304 360.03 109.266 374.746C109.852 379.136 110.735 383.528 112.13 387.712" stroke="black" stroke-width="3" stroke-linecap="round"/>
<path d="M88.5058 225.206C88.5058 230.67 86.5903 235.779 84.9264 240.955C82.8422 247.439 80.6187 253.878 78.4834 260.284" stroke="black" stroke-width="3" stroke-linecap="round"/>
<path d="M82.0628 271.022C76.8966 271.022 73.6028 271.551 70.2109 276.073C58.2557 292.014 48.0462 309.016 38.7119 326.702C30.4489 342.359 20.4966 360.257 20.4966 378.405" stroke="black" stroke-width="3" stroke-linecap="round"/>
<path d="M84.9264 290.351C82.6981 290.756 80.9479 292.935 79.5174 294.488C75.255 299.113 72.041 303.858 68.6996 309.123C61.1522 321.016 54.8792 333.456 49.5298 346.509C44.2207 359.463 38 370.718 38 385" stroke="black" stroke-width="3" stroke-linecap="round"/>
<path d="M78.5 260.5C78.5 264.639 80 267 80 270.5" stroke="black" stroke-width="3" stroke-linecap="round"/>
<path d="M83.4946 292.499C83.4946 305.65 87.785 318.639 89.9376 331.555C91.8297 342.907 93.7599 354.309 96.3806 365.519C98.4362 374.313 103.132 396.833 107 405" stroke="black" stroke-width="3" stroke-linecap="round"/>
<path d="M85 290.5C87 289.5 89.682 293 89 293" stroke="black" stroke-width="3" stroke-linecap="round"/>
<path d="M82.5 271C85.5 272 86.0702 275.89 87.7899 276.749" stroke="black" stroke-width="3" stroke-linecap="round"/>
<path d="M21.2125 379.837C27.5837 379.837 38.1979 382.618 41.0982 389.144C42.9361 393.279 44 399.111 44 403.5C44 405.743 43.5568 408.596 43 410.5" stroke="black" stroke-width="3" stroke-linecap="round"/>
<path d="M22.6443 379.837C18.8792 379.837 15 378.5 11.5 381C8.65082 383.663 7.79074 383.593 7.50001 386.5C6.87915 392.709 6.89475 398.68 6.89475 404.933C6.89475 407.41 7.19418 412.202 9.7583 413.484" stroke="black" stroke-width="3" stroke-linecap="round"/>
<path d="M11.1901 414.2C12.9982 414.2 22.9317 414.921 21.9284 413.166C20.5422 410.74 18.3489 408.104 18.3489 404.893C18.3489 399.799 15.1754 393.439 22.6442 393.439C29.0264 393.439 30.9232 399.998 31.2349 405.609C31.3745 408.123 29.961 411.229 32.6667 410.262C36.278 408.973 45.3348 409.5 41.5 409.5" stroke="black" stroke-width="3" stroke-linecap="round"/>
<path d="M10 414C8.88621 415.114 5.3291 417.13 4.03119 417.779" stroke="black" stroke-width="3" stroke-linecap="round"/>
<path d="M22 414.5C21.6877 417.311 19 419.5 16.9172 422.074" stroke="black" stroke-width="3" stroke-linecap="round"/>
<path d="M31.9508 411.336C30.1973 413.09 28.7282 415.634 27.6555 417.779" stroke="black" stroke-width="3" stroke-linecap="round"/>
<path d="M42.6891 412.052C42.4615 414.1 39.8689 417.779 37.6779 417.779" stroke="black" stroke-width="3" stroke-linecap="round"/>
<path d="M28 418.5L38.3937 417.779" stroke="black" stroke-width="3" stroke-linecap="round"/>
<path d="M27.6555 418.495C27.6555 413.612 25.8643 409.182 24.8317 404.535C24.1154 401.312 23.1235 397.974 19.7807 396.303" stroke="black" stroke-width="3" stroke-linecap="round"/>
<path d="M16.5 422.5C12.24 422.5 7.5 421.5 3.31531 419.211" stroke="black" stroke-width="3" stroke-linecap="round"/>
<path d="M3.31532 419.211C3.31532 411.486 1.88354 404.325 1.88354 396.66C1.88354 391.424 2.85858 387.94 7.61064 385.564" stroke="black" stroke-width="3" stroke-linecap="round"/>
<path d="M71.5 275C72.1264 281.891 76.9259 287.952 79.9152 293.931" stroke="black" stroke-width="3" stroke-linecap="round"/>
<path d="M65.5974 283.192C65.5974 288.765 65.948 293.258 67.1883 298.783C67.5373 300.337 69.554 303.277 71 304" stroke="black" stroke-width="3" stroke-linecap="round"/>
<path d="M55 299C55 305.348 56.9177 312.209 64.5 316" stroke="black" stroke-width="3" stroke-linecap="round"/>
<path d="M44 317C44 320.843 48.343 325.893 51.2797 328.134C53.0645 329.496 54.1687 330.5 56.5 330.5" stroke="black" stroke-width="3" stroke-linecap="round"/>
<path d="M36 333C37.1403 334.798 40.3181 338.285 42 339.5C43.3116 340.447 49.9238 341 51.5 341" stroke="black" stroke-width="3" stroke-linecap="round"/>
<path d="M28.5 347.5C28.8776 350.898 33.3428 353.232 36.2461 354.94C39.5697 356.895 40.6768 358 44.5 358" stroke="black" stroke-width="3" stroke-linecap="round"/>
<path d="M24.7919 359.076C25.3598 361.632 32.0328 365.601 34.0985 367.667C35.4846 369.053 37.8363 370.531 39.8255 370.531" stroke="black" stroke-width="3" stroke-linecap="round"/>
<path d="M112.5 388C120 387 121.249 388.163 128.516 385.882C149.68 379.241 170.878 372.587 192.389 367.15C218.085 360.655 245.139 355.497 271.773 355.497C275.096 355.497 277.314 353.825 280.363 353.389C282.433 353.094 284.716 353.349 286.806 353.349" stroke="black" stroke-width="3" stroke-linecap="round"/>
<path d="M286.806 353.349C286.806 324.461 286.274 295.527 286.846 266.648C287.055 256.119 282.352 246.507 282.352 236C282.352 230.395 281 228 281 222C279 211 273.5 190.504 273.5 180.5" stroke="black" stroke-width="3" stroke-linecap="round"/>
<path d="M281.5 223.5C283.228 223.116 288.001 219.096 288.556 217.808C292.078 209.638 294.574 201.329 295.994 192.514C297.825 181.141 299.157 168.947 297.783 157.435C296.349 145.413 291.902 137.079 283.823 128.243C273.779 117.257 269.196 116.097 258 106.5" stroke="black" stroke-width="3" stroke-linecap="round"/>
<path d="M284 248C284.223 245.767 292.166 239.666 293.408 237.933C296.008 234.305 298.417 230.392 300.488 226.439C305.804 216.289 311.503 206.52 315.601 195.775C320.108 183.956 322.727 171.467 323.277 158.827C323.751 147.912 319.713 138.18 315.8 128.283C312.909 120.971 308.916 113.656 303.272 108.118C298.606 103.541 292.357 101.124 286.528 98.5336C283.543 97.2071 277.5 92 274.5 90" stroke="black" stroke-width="3" stroke-linecap="round"/>
<path d="M235.978 77.0172C235.978 80.2153 235.978 84.8801 236.694 87.7555C238 93 239.5 96.5 244.5 99.5C247 101 248 101.5 250.654 102.789C255.913 105.343 262.183 97.5855 266.921 94.7553C273.082 91.0747 278.807 86.0473 276.625 78.2899C275.108 72.8955 273.122 67.4447 267.477 65.563" stroke="black" stroke-width="3" stroke-linecap="round"/>
<path d="M234.5 75.5C237.602 75.5 242.183 74.1537 245.285 74.1537C246.374 74.1537 250.429 71.7601 249.421 74.1537C247.761 78.0962 246.104 89.5141 253.716 84.892C257.144 82.811 259.603 82.9558 259.603 78.449C259.603 76.0947 260.002 73.4412 259.046 71.2901C257.696 68.2541 253.805 68.4266 258.648 68.4266C263.216 68.4266 263.487 65.5 268 65.5" stroke="black" stroke-width="3" stroke-linecap="round"/>
<path d="M233.831 75.5854C233.831 80.6277 231 86.9649 231 92" stroke="black" stroke-width="3" stroke-linecap="round"/>
<path d="M256 69C256 70.7565 255.383 76.2635 253.876 77.0172" stroke="black" stroke-width="3" stroke-linecap="round"/>
<path d="M254 77C254.882 77.1103 255.307 79.0548 255.307 79.8808C255.307 82.7159 253.205 83.9943 252 85.5" stroke="black" stroke-width="3" stroke-linecap="round"/>
<path d="M230.967 92.7667C231.329 97.1091 235.081 100.778 237.967 103.664C238.835 104.532 239.546 105.407 240.632 106.011C242.302 106.938 244 107.045 245.643 107.442C248.5 108.134 252.464 107.597 254.949 107.045C257.974 106.373 257.986 104.069 258.5 101.5" stroke="black" stroke-width="3" stroke-linecap="round"/>
<path d="M264.5 111C269.512 111 280.326 112.51 284.977 109.55C287.454 107.974 291.653 104.694 293 102" stroke="black" stroke-width="3" stroke-linecap="round"/>
<path d="M284.5 127.845C292.733 127.845 303.5 133 310.073 127.845C311.589 126.656 312.354 124.378 314.01 123.55" stroke="black" stroke-width="3" stroke-linecap="round"/>
<path d="M293.249 140.015C299.441 140.015 305.718 139.915 311.823 141.089C314.142 141.535 317.697 142.091 319.737 140.731" stroke="black" stroke-width="3" stroke-linecap="round"/>
<path d="M298.976 160.776C303.523 160.776 307.803 165.071 312.578 165.071C317.109 165.071 321.657 164.324 323.317 159.344" stroke="black" stroke-width="3" stroke-linecap="round"/>
<path d="M297.5 184C298.185 187.423 307.465 192.991 311.504 192.991C315.544 192.991 313.5 192.991 317 192" stroke="black" stroke-width="3" stroke-linecap="round"/>
<path d="M295 199.5C297 203.5 307.12 205.877 311.146 205.877" stroke="black" stroke-width="3" stroke-linecap="round"/>
<path d="M292 211C292 216.048 294.564 225 301 225" stroke="black" stroke-width="3" stroke-linecap="round"/>
<path d="M145.5 272C145.5 262.402 143.629 252.701 143.629 243.103C147.811 243.103 155.521 240 160 240C163.502 240 173.123 233.256 175.685 236.103C180.019 240.919 184.629 247.874 186.741 254C187.89 257.33 192.416 266.572 186.98 266.727C174.082 267.096 162.826 276.034 149.754 276.034C146.866 276.034 145.5 275.444 145.5 272Z" stroke="black" stroke-width="3" stroke-linecap="round"/>
<path d="M209.5 224.5C210.5 230.5 208.108 252.409 218.439 252.409C223.44 252.409 230.063 250.422 234.865 249.188C236.501 248.767 249.17 246.149 249.54 244.853C252.146 235.734 243.93 223.953 240.115 215.899C239.631 214.878 239.741 213.608 238.365 213.791C231.589 214.695 224.694 217.859 218.24 220.035C216.347 220.674 213 222.5 209.5 223.5" stroke="black" stroke-width="3" stroke-linecap="round"/>
<path d="M151 304.669C152 314.612 153.036 324.823 156.117 333.861C156.367 334.594 159.974 344.7 161.526 343.884C164.108 342.525 166.42 339.576 168.924 337.918C173.832 334.666 178.761 332.248 184.315 330.361C191.095 328.059 198.026 326.235 204.877 324.157C206.275 323.733 211.173 322.613 211.598 320.697C212.082 318.522 210.976 316.533 210.167 314.612C207.833 309.07 205.437 303.801 203.763 297.987C202.821 294.712 202.806 291.783 199.07 291.783C189.5 291.783 179.971 295.062 170.912 297.749C165.662 299.306 160.388 300.834 155.282 302.84C154.392 303.189 151.504 305.055 151.504 304.669" stroke="black" stroke-width="3" stroke-linecap="round"/>
<path d="M226.892 279.194C226.892 286.659 228.237 286.061 229 293.5C229.19 295.352 229.5 307.13 229.5 309C229.5 309.172 231.854 307.37 232.638 306.896C241.471 301.555 251.522 298.913 261.87 298.266C265.438 298.043 272.869 300.383 272.409 295.442C271.708 287.902 267.799 281.15 266.762 273.886C266.312 270.74 250.832 274.373 248.427 274.602C243.237 275.096 237.48 275.878 232.558 277.624C231.186 278.111 229 278.5 226.672 278.897" stroke="black" stroke-width="3" stroke-linecap="round"/>
<path d="M226.672 279.613C226.283 283.111 222.55 284.851 221.5 288" stroke="black" stroke-width="3" stroke-linecap="round"/>
<path d="M230 308C229 310.5 227 314.5 225.5 317.5" stroke="black" stroke-width="3" stroke-linecap="round"/>
<path d="M272.011 298.478C271.802 300.779 267 307.5 265.5 309" stroke="black" stroke-width="3" stroke-linecap="round"/>
<path d="M265.5 309C254.944 309 248.756 310.477 238.842 314.532C234.414 316.344 229.953 318.271 225.24 318.271" stroke="black" stroke-width="3" stroke-linecap="round"/>
<path d="M225.24 318.271C225.24 313.017 223.5 308.034 223.5 303C223.5 300.436 223.233 297.902 223.092 295.363C222.994 293.59 222.63 289.657 221.661 288.204" stroke="black" stroke-width="3" stroke-linecap="round"/>
<path d="M150.788 305.385C147 311 147.876 312.186 144 318" stroke="black" stroke-width="3" stroke-linecap="round"/>
<path d="M160.5 344.5C159 346.5 159.235 345.662 158 348C156.735 349.162 154.023 351.989 153 352.5" stroke="black" stroke-width="3" stroke-linecap="round"/>
<path d="M211.5 322C210.981 325.46 208.698 329.284 206.627 331.873" stroke="black" stroke-width="3" stroke-linecap="round"/>
<path d="M206 332C194 333.5 186.984 340.128 176.401 344.361C172.872 345.773 169 347.5 165.464 349.412C163.98 350.439 159 351.5 154 353" stroke="black" stroke-width="3" stroke-linecap="round"/>
<path d="M153 353C153 348.13 150.5 341 149.4 336.842C148.516 333.5 145.109 321.658 144 318" stroke="black" stroke-width="3" stroke-linecap="round"/>
<path d="M143 243.5C140.5 246 140 248.5 137.5 252.5" stroke="black" stroke-width="3" stroke-linecap="round"/>
<path d="M145.061 276.034C144.86 278.044 143.402 279.805 142.913 281.761" stroke="black" stroke-width="3" stroke-linecap="round"/>
<path d="M188.73 267.443C185.463 270.71 183.05 271.9 181 276" stroke="black" stroke-width="3" stroke-linecap="round"/>
<path d="M180.5 276C173.863 276 167.277 279.273 160.81 279.613C154.141 279.964 147.847 284.5 141 284.5" stroke="black" stroke-width="3" stroke-linecap="round"/>
<path d="M140.765 284.624C140.765 277.055 137.902 270.105 137.902 262.67C137.902 261 137.902 255.5 137.902 254" stroke="black" stroke-width="3" stroke-linecap="round"/>
<path d="M209 224C206.381 227.703 203.751 227.748 201.5 231.5" stroke="black" stroke-width="3" stroke-linecap="round"/>
<path d="M213.786 251.693C213.083 253.177 210.732 258.384 209.5 259" stroke="black" stroke-width="3" stroke-linecap="round"/>
<path d="M249.5 245.5C247.704 249.034 245 250 243 253.5" stroke="black" stroke-width="3" stroke-linecap="round"/>
<path d="M243 253.5C236.58 253.5 235 255.5 228.726 256.389C222.452 257.277 215.639 260 209 260" stroke="black" stroke-width="3" stroke-linecap="round"/>
<path d="M208.775 259.568C208.775 257.215 207.76 255.338 207.5 253C207.399 252.092 206 248.5 206 247.5C205.5 245 202.5 234 202 231.5" stroke="black" stroke-width="3" stroke-linecap="round"/>
<path d="M113.143 387.679C113.143 389.412 112.591 390.852 112.284 392.54C111.844 394.963 110.72 397.842 109.66 400.086C108.983 401.519 108.381 403.079 107.701 404.439" stroke="black" stroke-width="3" stroke-linecap="round"/>
<path d="M287.49 354.812C287.126 356.267 284.918 358.111 283.934 359.189C281.525 361.83 279.178 364.543 276.703 367.122C275.247 368.64 273.416 370.552 272.471 372.443" stroke="black" stroke-width="3" stroke-linecap="round"/>
<path d="M272.689 373.096C266.634 373.096 260.844 374.092 254.925 375.284C249.791 376.318 244.705 377.711 239.628 378.997C233.963 380.431 228.249 381.574 222.542 382.83C205.982 386.475 189.578 390.571 173.145 394.741C162.144 397.532 151.138 399.643 139.915 401.246C133.172 402.21 126.507 403.652 119.794 404.705C116.537 405.216 110.81 404.705 107.5 404.705" stroke="black" stroke-width="3" stroke-linecap="round"/>
<path d="M144.113 169.386C146.332 169.557 147.889 171.367 150 172C152.56 172.768 153.344 172.615 156 173C157.394 173.202 162.672 170.156 163.5 168.5" stroke="black" stroke-width="3" stroke-linecap="round"/>
<path d="M143.163 179.592C143.426 181.039 145.253 182.394 146.236 183.376C147.319 184.46 148.103 185.107 149.519 185.71C151.67 186.627 153.836 186.712 156.125 186.712C157.294 186.712 158.918 186.989 160.014 186.528C162.69 185.401 163.982 182.541 165.473 180.304" stroke="black" stroke-width="3" stroke-linecap="round"/>
<path d="M143 192.5C145 195 148.19 196.225 150.231 197.05C153.216 198.257 156.603 198.188 159.645 197.155C162.621 196.146 164.412 193.959 166.423 191.696C166.812 191.258 167.345 190.042 167.5 189.5" stroke="black" stroke-width="3" stroke-linecap="round"/>
<path d="M142.926 204.276C145.019 206.369 147.624 206.97 150.468 207.598C153.829 208.34 157.217 208.227 160.476 207.005C161.862 206.485 163.377 206.384 164.761 205.818C165.886 205.358 167.241 205.396 168.321 204.856C169.528 204.252 170.259 203.921 170.695 202.614" stroke="black" stroke-width="3" stroke-linecap="round"/>
</svg>
