<svg width="325" height="424" viewBox="0 0 325 424" fill="none" xmlns="http://www.w3.org/2000/svg">
<path d="M59.2709 62.9868C59.2709 93.7169 59.2709 124.447 59.2709 155.177C59.2709 158.226 58.4507 162.667 59.3107 165.677C59.6659 166.92 67.2479 166.005 68.0206 165.915C76.2161 164.965 84.3132 162.275 92.2812 160.268C101.662 157.905 111.124 155.892 120.479 153.427C150.488 145.519 180.324 141.734 211.277 141.734C212.734 141.734 232.306 142.949 232.356 142.848C234.324 138.913 230.707 129.11 230.05 125.11C228.327 114.629 226.607 104.142 224.959 93.6506C223.765 86.0563 222.211 78.3252 220.345 70.8615C219.75 68.4805 219.04 65.5058 217.84 63.3447C216.204 60.401 213.386 61.7942 209.846 61.3959C185.72 58.6818 161.059 60.1232 136.785 60.1232C124.128 60.1232 110.47 61.6187 97.9288 59.5664C94.3708 58.9842 91.1383 58.1393 87.9063 56.7029C82.877 54.4676 74.6293 58.4697 69.691 59.3676C64.6651 60.2814 61.5888 60.754 57.1232 62.9868" stroke="black" stroke-width="3" stroke-linecap="round"/>
<path d="M57.1232 62.9868C57.1232 73.6343 53.6484 85.7382 47.8167 94.4858" stroke="black" stroke-width="3" stroke-linecap="round"/>
<path d="M59.9868 165.359C59.4384 171.391 55.3486 172.875 53.6165 178.071" stroke="black" stroke-width="3" stroke-linecap="round"/>
<path d="M232.116 143.071C230.414 143.752 229.104 147.131 228.116 148.571C225.104 152.964 223.743 157.299 220.743 161.7C219.579 163.406 219.93 164.164 218.116 165.071" stroke="black" stroke-width="3" stroke-linecap="round"/>
<path d="M218.116 165.071C207.491 165.071 175.54 169.657 165.116 171.571M142.616 174.071C131.162 174.071 113.718 173.949 102.264 173.949C95.2625 173.949 88.621 173.702 81.7816 175.222C72.2238 177.346 62.8199 178.244 52.8279 178.244" stroke="black" stroke-width="3" stroke-linecap="round"/>
<path d="M52.828 178.244C52.828 167.963 51.3725 157.669 50.6405 147.422C50.0162 138.681 49.9644 130.033 49.9644 121.252C49.9644 113.762 47.6165 102.062 47.6165 94.5714" stroke="black" stroke-width="3" stroke-linecap="round"/>
<path d="M170.233 97.1902C170.233 91.3213 173.75 82.0714 181.116 82.0714C186.116 81.5714 191.144 89.336 190.238 93.4119C189.294 97.6609 185.082 103.649 180.574 104.468C174.89 105.502 170.233 102.831 170.233 97.1902Z" stroke="black" stroke-width="3" stroke-linecap="round"/>
<path d="M175.245 83.7475C172.648 84.0359 170.309 90.627 169.159 92.6961C168.11 94.5859 167.61 96.8681 166.654 98.7811" stroke="black" stroke-width="3" stroke-linecap="round"/>
<path d="M186.699 101.645C186.699 105.325 186.116 107.106 184.551 110.235" stroke="black" stroke-width="3" stroke-linecap="round"/>
<path d="M184.551 110.235C175.618 110.235 166.616 109.829 166.616 99.5714" stroke="black" stroke-width="3" stroke-linecap="round"/>
<path d="M121.712 101.486C117.444 99.8088 121.116 89.0714 122.985 86.611C125.342 81.897 131.309 83.0316 135.712 83.0316C142.114 83.0316 146.326 89.1515 147.882 95.2017C150.56 105.617 126.747 103.463 121.712 101.486Z" stroke="black" stroke-width="3" stroke-linecap="round"/>
<path d="M147.116 100.071C144.491 103.174 142.946 105.206 140.616 108.571C139.825 109.714 139.695 110.532 138.616 111.071" stroke="black" stroke-width="3" stroke-linecap="round"/>
<path d="M120.616 92.0714C118.616 96.0714 114.394 98.4247 114.394 102.361" stroke="black" stroke-width="3" stroke-linecap="round"/>
<path d="M114.394 102.361C120.512 108.479 128.858 110.951 137.303 110.951" stroke="black" stroke-width="3" stroke-linecap="round"/>
<path d="M160.211 108.088C160.431 110.07 166.654 116.671 166.654 112.741C166.654 110.781 164.92 109.142 163.79 107.73C162.434 106.035 161.366 107.372 159.495 107.372" stroke="black" stroke-width="3" stroke-linecap="round"/>
<path d="M159.495 107.372C159.495 112.369 158.617 117.845 155.2 121.689" stroke="black" stroke-width="3" stroke-linecap="round"/>
<path d="M165.222 115.246C165.222 118.466 160.908 127.661 157.347 128.848" stroke="black" stroke-width="3" stroke-linecap="round"/>
<path d="M150.904 58.6915C150.904 48.7426 151.573 38.5818 150.865 28.664C150.568 24.5177 149.616 23.3039 149.616 19.0714" stroke="black" stroke-width="3" stroke-linecap="round"/>
<path d="M151.62 18.6018C146.441 18.6018 132.594 21.1937 132.291 12.7156C132.198 10.0916 132.079 6.73 133.166 4.28408C134.428 1.44531 136.13 1.96971 139.331 2.17619C142.417 2.37526 158.632 6.55706 157.308 12.5168C156.736 15.088 152.501 20.309 150.188 21.4654" stroke="black" stroke-width="3" stroke-linecap="round"/>
<path d="M143.745 163.211C143.745 176.591 142.116 200.23 142.116 213.571" stroke="black" stroke-width="3" stroke-linecap="round"/>
<path d="M163.79 164.643C163.79 173.19 166.589 182.607 168.404 190.932C169.382 195.421 172.116 202.975 172.116 207.571" stroke="black" stroke-width="3" stroke-linecap="round"/>
<path d="M92.9176 221.914C114.64 221.914 136.887 215.661 157.864 210.937C186.345 204.523 215.355 199.337 243.254 190.812C252.844 187.882 263.098 179.676 273.321 179.676" stroke="black" stroke-width="3" stroke-linecap="round"/>
<path d="M90.7699 223.345C90.7699 259.102 94.3057 295.124 100.951 330.251C103.715 344.861 107.421 359.602 109.383 374.318C109.968 378.708 110.852 383.099 112.246 387.283" stroke="black" stroke-width="3" stroke-linecap="round"/>
<path d="M88.6223 224.777C88.6223 230.241 86.7067 235.35 85.0428 240.527C82.9586 247.011 80.7352 253.45 78.5999 259.856" stroke="black" stroke-width="3" stroke-linecap="round"/>
<path d="M82.1793 270.594C77.0131 270.594 73.7193 271.122 70.3274 275.645C58.3722 291.585 48.1626 308.588 38.8284 326.274C30.5654 341.93 20.613 359.828 20.613 377.977" stroke="black" stroke-width="3" stroke-linecap="round"/>
<path d="M85.0428 289.923C82.8145 290.328 81.0644 292.507 79.6339 294.059C75.3714 298.684 72.1575 303.43 68.8161 308.695C61.2686 320.588 54.9957 333.027 49.6462 346.08C44.3371 359.034 38.1165 370.289 38.1165 384.571" stroke="black" stroke-width="3" stroke-linecap="round"/>
<path d="M78.6165 260.071C78.6165 264.21 80.1165 266.571 80.1165 270.071" stroke="black" stroke-width="3" stroke-linecap="round"/>
<path d="M83.6111 292.07C83.6111 305.221 87.9015 318.21 90.0541 331.126C91.9462 342.479 93.8764 353.88 96.497 365.091C98.5526 373.884 103.248 396.405 107.116 404.571" stroke="black" stroke-width="3" stroke-linecap="round"/>
<path d="M85.1165 290.071C87.1165 289.071 89.7985 292.571 89.1165 292.571" stroke="black" stroke-width="3" stroke-linecap="round"/>
<path d="M82.6165 270.571C85.6165 271.571 86.1866 275.461 87.9063 276.321" stroke="black" stroke-width="3" stroke-linecap="round"/>
<path d="M21.3289 379.409C27.7001 379.409 38.3144 382.189 41.2147 388.715C43.0526 392.85 44.1165 398.683 44.1165 403.071C44.1165 405.315 43.6733 408.167 43.1165 410.071" stroke="black" stroke-width="3" stroke-linecap="round"/>
<path d="M22.7607 379.409C18.9957 379.409 15.1165 378.071 11.6165 380.571C8.76728 383.234 7.90719 383.164 7.61647 386.071C6.99561 392.28 7.01121 398.251 7.01121 404.504C7.01121 406.982 7.31064 411.773 9.87475 413.055" stroke="black" stroke-width="3" stroke-linecap="round"/>
<path d="M11.3065 413.771C13.1147 413.771 23.0481 414.493 22.0448 412.737C20.6586 410.311 18.4654 407.675 18.4654 404.465C18.4654 399.371 15.2919 393.01 22.7607 393.01C29.1428 393.01 31.0396 399.57 31.3513 405.18C31.491 407.694 30.0774 410.8 32.7831 409.834C36.3945 408.544 45.4513 409.071 41.6165 409.071" stroke="black" stroke-width="3" stroke-linecap="round"/>
<path d="M10.1165 413.571C9.00266 414.685 5.44556 416.702 4.14764 417.351" stroke="black" stroke-width="3" stroke-linecap="round"/>
<path d="M22.1165 414.071C21.8042 416.882 19.1165 419.071 17.0336 421.646" stroke="black" stroke-width="3" stroke-linecap="round"/>
<path d="M32.0672 410.908C30.3138 412.661 28.8447 415.205 27.7719 417.351" stroke="black" stroke-width="3" stroke-linecap="round"/>
<path d="M42.8055 411.623C42.578 413.671 39.9853 417.351 37.7943 417.351" stroke="black" stroke-width="3" stroke-linecap="round"/>
<path d="M28.1165 418.071L38.5102 417.351" stroke="black" stroke-width="3" stroke-linecap="round"/>
<path d="M27.7719 418.066C27.7719 413.183 25.9807 408.753 24.9481 404.107C24.2319 400.883 23.24 397.545 19.8972 395.874" stroke="black" stroke-width="3" stroke-linecap="round"/>
<path d="M16.6165 422.071C12.3565 422.071 7.61646 421.071 3.43176 418.782" stroke="black" stroke-width="3" stroke-linecap="round"/>
<path d="M3.43177 418.782C3.43177 411.057 2 403.897 2 396.232C2 390.995 2.97503 387.512 7.72709 385.136" stroke="black" stroke-width="3" stroke-linecap="round"/>
<path d="M71.6165 274.571C72.2429 281.462 77.0424 287.524 80.0316 293.502" stroke="black" stroke-width="3" stroke-linecap="round"/>
<path d="M65.7139 282.764C65.7139 288.336 66.0645 292.83 67.3047 298.354C67.6537 299.909 69.6704 302.848 71.1165 303.571" stroke="black" stroke-width="3" stroke-linecap="round"/>
<path d="M55.1165 298.571C55.1165 304.919 57.0342 311.78 64.6165 315.571" stroke="black" stroke-width="3" stroke-linecap="round"/>
<path d="M44.1165 316.571C44.1165 320.414 48.4595 325.464 51.3962 327.706C53.181 329.068 54.2851 330.071 56.6165 330.071" stroke="black" stroke-width="3" stroke-linecap="round"/>
<path d="M36.1165 332.571C37.2568 334.369 40.4345 337.857 42.1164 339.071C43.428 340.019 50.0402 340.571 51.6164 340.571" stroke="black" stroke-width="3" stroke-linecap="round"/>
<path d="M28.6165 347.071C28.994 350.47 33.4592 352.804 36.3626 354.512C39.6861 356.467 40.7932 357.571 44.6165 357.571" stroke="black" stroke-width="3" stroke-linecap="round"/>
<path d="M24.9084 358.648C25.4762 361.203 32.1492 365.173 34.2149 367.238C35.6011 368.625 37.9528 370.102 39.942 370.102" stroke="black" stroke-width="3" stroke-linecap="round"/>
<path d="M112.616 387.571C120.116 386.571 121.366 387.734 128.632 385.454C149.796 378.812 170.994 372.158 192.505 366.721C218.201 360.227 245.255 355.068 271.889 355.068C275.212 355.068 277.431 353.396 280.48 352.961C282.549 352.665 284.832 352.921 286.923 352.921" stroke="black" stroke-width="3" stroke-linecap="round"/>
<path d="M286.923 352.921C286.923 324.032 286.391 295.098 286.963 266.219C287.171 255.69 282.468 246.079 282.468 235.571C282.468 229.966 281.116 227.571 281.116 221.571C279.116 210.571 273.616 190.075 273.616 180.071" stroke="black" stroke-width="3" stroke-linecap="round"/>
<path d="M281.616 223.071C283.344 222.688 288.117 218.668 288.673 217.38C292.194 209.21 294.69 200.9 296.11 192.085C297.942 180.713 299.274 168.519 297.9 157.007C296.465 144.984 292.019 136.65 283.94 127.814C273.896 116.828 269.313 115.668 258.116 106.071" stroke="black" stroke-width="3" stroke-linecap="round"/>
<path d="M284.116 247.571C284.34 245.338 292.282 239.237 293.525 237.504C296.125 233.876 298.533 229.964 300.604 226.01C305.921 215.86 311.62 206.091 315.717 195.346C320.225 183.527 322.844 171.038 323.393 158.398C323.868 147.483 319.829 137.751 315.916 127.854C313.025 120.542 309.032 113.227 303.388 107.69C298.722 103.112 292.474 100.696 286.644 98.105C283.66 96.7785 277.616 91.5714 274.616 89.5714" stroke="black" stroke-width="3" stroke-linecap="round"/>
<path d="M236.095 76.5886C236.095 79.7867 236.095 84.4515 236.811 87.3269C238.116 92.5714 239.616 96.0714 244.616 99.0714C247.116 100.571 248.116 101.071 250.771 102.361C256.029 104.915 262.3 97.1569 267.037 94.3267C273.198 90.6461 278.923 85.6188 276.741 77.8613C275.224 72.4669 273.239 67.0161 267.594 65.1344" stroke="black" stroke-width="3" stroke-linecap="round"/>
<path d="M234.616 75.0714C237.719 75.0714 242.299 73.7251 245.401 73.7251C246.491 73.7251 250.545 71.3315 249.538 73.7251C247.878 77.6677 246.22 89.0855 253.833 84.4634C257.26 82.3824 259.719 82.5272 259.719 78.0204C259.719 75.6662 260.118 73.0126 259.162 70.8615C257.813 67.8255 253.922 67.998 258.765 67.998C263.332 67.998 263.604 65.0714 268.116 65.0714" stroke="black" stroke-width="3" stroke-linecap="round"/>
<path d="M233.947 75.1568C233.947 80.1991 231.116 86.5363 231.116 91.5714" stroke="black" stroke-width="3" stroke-linecap="round"/>
<path d="M256.116 68.5714C256.116 70.3279 255.499 75.835 253.992 76.5886" stroke="black" stroke-width="3" stroke-linecap="round"/>
<path d="M254.116 76.5714C254.999 76.6817 255.424 78.6262 255.424 79.4522C255.424 82.2873 253.321 83.5657 252.116 85.0714" stroke="black" stroke-width="3" stroke-linecap="round"/>
<path d="M231.084 92.3381C231.446 96.6805 235.197 100.349 238.083 103.235C238.952 104.104 239.662 104.979 240.748 105.582C242.418 106.51 244.116 106.616 245.759 107.014C248.616 107.705 252.58 107.168 255.066 106.616C258.09 105.944 258.103 103.64 258.616 101.071" stroke="black" stroke-width="3" stroke-linecap="round"/>
<path d="M264.616 110.571C269.628 110.571 280.443 112.081 285.093 109.122C287.57 107.545 291.769 104.266 293.116 101.571" stroke="black" stroke-width="3" stroke-linecap="round"/>
<path d="M284.616 127.417C292.849 127.417 303.616 132.571 310.189 127.417C311.706 126.227 312.47 123.949 314.126 123.121" stroke="black" stroke-width="3" stroke-linecap="round"/>
<path d="M293.366 139.587C299.558 139.587 305.835 139.487 311.939 140.66C314.259 141.107 317.813 141.663 319.854 140.303" stroke="black" stroke-width="3" stroke-linecap="round"/>
<path d="M299.093 160.347C303.64 160.347 307.92 164.643 312.695 164.643C317.226 164.643 321.773 163.895 323.433 158.916" stroke="black" stroke-width="3" stroke-linecap="round"/>
<path d="M297.616 183.571C298.301 186.994 307.581 192.562 311.621 192.562C315.66 192.562 313.616 192.562 317.116 191.571" stroke="black" stroke-width="3" stroke-linecap="round"/>
<path d="M295.116 199.071C297.116 203.071 307.236 205.448 311.263 205.448" stroke="black" stroke-width="3" stroke-linecap="round"/>
<path d="M292.116 210.571C292.116 215.619 294.68 224.571 301.116 224.571" stroke="black" stroke-width="3" stroke-linecap="round"/>
<path d="M145.616 271.571C145.616 261.973 143.745 252.272 143.745 242.674C147.927 242.674 155.637 239.571 160.116 239.571C163.618 239.571 173.239 232.827 175.801 235.674C180.136 240.49 184.745 247.445 186.858 253.572C188.006 256.901 192.532 266.143 187.096 266.298C174.198 266.667 162.942 275.605 149.87 275.605C146.982 275.605 145.616 275.015 145.616 271.571Z" stroke="black" stroke-width="3" stroke-linecap="round"/>
<path d="M209.616 224.071C210.616 230.071 208.224 251.981 218.556 251.981C223.557 251.981 230.18 249.994 234.981 248.759C236.618 248.338 249.287 245.72 249.657 244.424C252.262 235.305 244.046 223.525 240.231 215.471C239.748 214.45 239.858 213.179 238.481 213.363C231.706 214.266 224.811 217.43 218.357 219.607C216.463 220.245 213.116 222.071 209.616 223.071" stroke="black" stroke-width="3" stroke-linecap="round"/>
<path d="M151.116 304.24C152.116 314.183 153.153 324.395 156.234 333.433C156.484 334.166 160.091 344.272 161.643 343.455C164.225 342.096 166.537 339.148 169.04 337.489C173.949 334.237 178.878 331.819 184.432 329.933C191.212 327.63 198.143 325.807 204.994 323.728C206.391 323.305 211.289 322.184 211.715 320.268C212.198 318.094 211.092 316.104 210.283 314.183C207.95 308.642 205.554 303.372 203.88 297.559C202.937 294.284 202.923 291.355 199.187 291.355C189.616 291.355 180.088 294.634 171.029 297.32C165.779 298.877 160.504 300.405 155.399 302.411C154.508 302.761 151.62 304.626 151.62 304.24" stroke="black" stroke-width="3" stroke-linecap="round"/>
<path d="M227.008 278.765C227.008 286.231 228.354 285.633 229.116 293.071C229.306 294.924 229.616 306.701 229.616 308.571C229.616 308.743 231.971 306.941 232.754 306.468C241.587 301.127 251.639 298.484 261.986 297.837C265.555 297.614 272.985 299.955 272.526 295.013C271.824 287.473 267.916 280.721 266.878 273.457C266.429 270.312 250.949 273.944 248.543 274.173C243.354 274.667 237.597 275.449 232.675 277.196C231.303 277.683 229.116 278.071 226.788 278.469" stroke="black" stroke-width="3" stroke-linecap="round"/>
<path d="M226.788 279.184C226.4 282.682 222.666 284.422 221.616 287.571" stroke="black" stroke-width="3" stroke-linecap="round"/>
<path d="M230.116 307.571C229.116 310.071 227.116 314.071 225.616 317.071" stroke="black" stroke-width="3" stroke-linecap="round"/>
<path d="M272.128 298.049C271.918 300.351 267.116 307.071 265.616 308.571" stroke="black" stroke-width="3" stroke-linecap="round"/>
<path d="M265.616 308.571C255.06 308.571 248.873 310.048 238.958 314.104C234.53 315.915 230.07 317.842 225.357 317.842" stroke="black" stroke-width="3" stroke-linecap="round"/>
<path d="M225.357 317.842C225.357 312.589 223.616 307.605 223.616 302.571C223.616 300.007 223.35 297.473 223.209 294.934C223.11 293.161 222.746 289.228 221.777 287.775" stroke="black" stroke-width="3" stroke-linecap="round"/>
<path d="M150.904 304.956C147.116 310.571 147.993 311.757 144.116 317.571" stroke="black" stroke-width="3" stroke-linecap="round"/>
<path d="M160.616 344.071C159.116 346.071 159.351 345.233 158.116 347.571C156.851 348.733 154.139 351.56 153.116 352.071" stroke="black" stroke-width="3" stroke-linecap="round"/>
<path d="M211.616 321.571C211.098 325.031 208.815 328.855 206.743 331.444" stroke="black" stroke-width="3" stroke-linecap="round"/>
<path d="M206.116 331.571C194.116 333.071 187.1 339.699 176.517 343.932C172.988 345.344 169.116 347.071 165.58 348.983C164.097 350.01 159.116 351.071 154.116 352.571" stroke="black" stroke-width="3" stroke-linecap="round"/>
<path d="M153.116 352.571C153.116 347.701 150.616 340.571 149.516 336.414C148.632 333.071 145.225 321.229 144.116 317.571" stroke="black" stroke-width="3" stroke-linecap="round"/>
<path d="M143.116 243.071C140.616 245.571 140.116 248.071 137.616 252.071" stroke="black" stroke-width="3" stroke-linecap="round"/>
<path d="M145.177 275.605C144.976 277.615 143.519 279.376 143.03 281.332" stroke="black" stroke-width="3" stroke-linecap="round"/>
<path d="M188.846 267.014C185.58 270.281 183.167 271.471 181.116 275.571" stroke="black" stroke-width="3" stroke-linecap="round"/>
<path d="M180.616 275.571C173.979 275.571 167.393 278.844 160.927 279.184C154.258 279.535 147.964 284.071 141.116 284.071" stroke="black" stroke-width="3" stroke-linecap="round"/>
<path d="M140.882 284.196C140.882 276.626 138.018 269.677 138.018 262.242C138.018 260.571 138.018 255.071 138.018 253.571" stroke="black" stroke-width="3" stroke-linecap="round"/>
<path d="M209.116 223.571C206.498 227.275 203.868 227.32 201.616 231.071" stroke="black" stroke-width="3" stroke-linecap="round"/>
<path d="M213.902 251.265C213.199 252.749 210.849 257.955 209.616 258.571" stroke="black" stroke-width="3" stroke-linecap="round"/>
<path d="M249.616 245.071C247.82 248.605 245.116 249.571 243.116 253.071" stroke="black" stroke-width="3" stroke-linecap="round"/>
<path d="M243.116 253.071C236.697 253.071 235.116 255.071 228.842 255.96C222.568 256.849 215.755 259.571 209.116 259.571" stroke="black" stroke-width="3" stroke-linecap="round"/>
<path d="M208.891 259.14C208.891 256.787 207.876 254.91 207.616 252.571C207.516 251.663 206.116 248.071 206.116 247.071C205.616 244.571 202.616 233.571 202.116 231.071" stroke="black" stroke-width="3" stroke-linecap="round"/>
<path d="M113.259 387.25C113.259 388.983 112.708 390.424 112.401 392.111C111.96 394.534 110.836 397.414 109.777 399.657C109.1 401.091 108.498 402.65 107.818 404.01" stroke="black" stroke-width="3" stroke-linecap="round"/>
<path d="M287.606 354.383C287.242 355.838 285.035 357.683 284.051 358.761C281.641 361.401 279.294 364.114 276.82 366.693C275.363 368.211 273.533 370.123 272.587 372.014" stroke="black" stroke-width="3" stroke-linecap="round"/>
<path d="M272.805 372.667C266.75 372.667 260.96 373.664 255.041 374.856C249.908 375.889 244.821 377.282 239.745 378.568C234.08 380.003 228.365 381.145 222.658 382.401C206.098 386.047 189.694 390.143 173.261 394.312C162.26 397.103 151.255 399.215 140.032 400.818C133.289 401.781 126.624 403.223 119.91 404.276C116.653 404.787 110.926 404.276 107.616 404.276" stroke="black" stroke-width="3" stroke-linecap="round"/>
<path d="M144.229 168.958C146.448 169.129 148.006 170.938 150.116 171.571C152.676 172.339 153.461 172.186 156.116 172.571C157.51 172.774 162.788 169.728 163.616 168.071" stroke="black" stroke-width="3" stroke-linecap="round"/>
<path d="M143.28 179.163C143.543 180.611 145.369 181.965 146.352 182.948C147.435 184.031 148.22 184.678 149.635 185.282C151.787 186.199 153.953 186.284 156.241 186.284C157.41 186.284 159.035 186.561 160.131 186.099C162.806 184.973 164.098 182.113 165.59 179.876" stroke="black" stroke-width="3" stroke-linecap="round"/>
<path d="M143.116 192.071C145.116 194.571 148.306 195.796 150.347 196.621C153.333 197.828 156.719 197.759 159.762 196.727C162.737 195.717 164.528 193.53 166.539 191.268C166.929 190.83 167.461 189.614 167.616 189.071" stroke="black" stroke-width="3" stroke-linecap="round"/>
<path d="M143.042 203.847C145.136 205.941 147.74 206.542 150.585 207.17C153.946 207.912 157.333 207.798 160.592 206.576C161.979 206.056 163.494 205.956 164.878 205.39C166.003 204.929 167.358 204.967 168.438 204.427C169.644 203.824 170.376 203.493 170.811 202.186" stroke="black" stroke-width="3" stroke-linecap="round"/>
<path d="M212.265 225.511C217.022 225.261 221.769 222.952 226.114 221.173C228.363 220.252 230.571 219.224 232.844 218.365C233.691 218.045 234.734 217.559 235.665 217.559C236.599 217.559 233.553 220.657 233.422 220.783C227.684 226.287 222.52 232.356 216.805 237.883C216.282 238.39 215.594 239.219 214.871 239.482C213.359 240.031 217.444 237.55 218.766 236.634C224.699 232.525 230.505 228.13 236.605 224.276C236.712 224.208 240.206 222.043 240.071 222.852C239.909 223.825 238.941 224.909 238.446 225.726C237.11 227.931 235.783 230.141 234.429 232.335C232.636 235.243 230.898 238.181 229.096 241.08C228.194 242.531 228.159 242.622 229.593 241.443C233.354 238.35 237.011 235.142 241.038 232.389C241.363 232.167 245.068 229.742 243.752 231.637C242.426 233.545 241.121 235.437 239.856 237.386C238.691 239.181 237.915 241.27 236.552 242.921C235.029 244.764 240.823 240.261 243.214 240.261" stroke="#29D83A" stroke-width="3" stroke-linecap="round"/>
<path d="M146.981 246.789C152.289 246.789 157.035 244.477 162.214 243.941C164.48 243.707 164.377 244.093 162.939 245.58C159.448 249.19 156.229 252.952 152.434 256.273C152.363 256.336 150.794 257.83 150.89 257.159C150.983 256.506 152.224 255.802 152.609 255.507C155.628 253.195 158.698 250.951 161.838 248.804C164.604 246.913 167.436 245.064 170.381 243.458C170.542 243.37 172.584 242.366 172.584 242.84C172.584 243.311 171.869 244.091 171.67 244.344C170.451 245.903 169.14 247.389 167.909 248.938C165.974 251.375 164.114 253.81 162.402 256.407C161.042 258.469 159.599 260.426 158.399 262.586C158.017 263.273 156.758 265.209 157.351 264.695C160.37 262.079 162.979 258.908 165.867 256.139C168.831 253.297 171.811 250.431 174.975 247.81C175.352 247.498 178.894 244.501 177.93 246.735C177.055 248.765 175.54 250.553 174.303 252.364C172.936 254.366 171.65 256.427 170.354 258.476C170.149 258.799 168.106 262.058 169.064 261.431C172.047 259.481 175.367 258.281 178.4 256.461C180.243 255.356 182.053 254.09 183.975 253.13C184.68 252.777 184.848 253.14 184.66 253.828C184.353 254.955 183.242 256.145 182.578 257.079C181.668 258.359 180.611 259.523 179.596 260.719C179.464 260.875 178.451 262.398 178.226 262.398C178.065 262.398 178.873 261.677 178.924 261.646C179.726 261.156 180.835 260.571 181.799 260.571" stroke="#29D83A" stroke-width="3" stroke-linecap="round"/>
<path d="M231.366 283.3C232.311 283.3 237.17 281.367 237.17 282.924C237.17 285.985 235.722 288.864 234.644 291.682C233.8 293.89 232.875 296.065 232.011 298.264C231.789 298.829 230.853 300.249 231.716 298.855C234.418 294.49 238.508 290.836 242.032 287.155C245.502 283.531 249.038 279.937 252.698 276.503C252.989 276.23 257.399 272.122 256.943 274.031C256.599 275.469 255.624 276.815 254.874 278.061C253.668 280.067 252.381 282.031 251.113 283.998C249.7 286.189 247.372 288.62 246.599 291.131C246.532 291.35 246.182 291.912 246.694 291.4C248.925 289.169 251.066 286.891 253.383 284.737C256.379 281.952 259.313 279.062 262.598 276.61C263.797 275.716 265.246 274.489 266.735 274.139C268.021 273.836 265.179 279.128 265.07 279.337C263.175 282.989 261.044 286.646 258.501 289.882C257.803 290.77 261.393 290.312 261.953 290.312C263.308 290.312 264.62 290.07 265.943 290.07" stroke="#29D83A" stroke-width="3" stroke-linecap="round"/>
<path d="M155.927 307.721C155.785 307.884 158.822 305.847 159.285 305.518C161.57 303.897 163.972 302.275 166.485 301.018C169.28 299.621 167.136 305.559 166.848 306.432C165.936 309.191 164.812 311.867 163.691 314.545C163.559 314.86 162.657 316.135 163.235 315.458C165.186 313.173 168.019 311.404 170.287 309.441C172.251 307.74 174.24 306.049 176.238 304.39C176.379 304.273 177.7 303.172 177.876 303.476C178.684 304.872 176.576 308.409 176.023 309.535C173.073 315.534 170.071 321.686 166.593 327.4C166.545 327.478 166.175 328.42 166.405 328.018C167.039 326.908 167.918 325.905 168.742 324.942C171.71 321.478 174.822 318.124 177.903 314.76C183.06 309.13 188.505 303.81 194.13 298.654C195.691 297.223 197.687 294.79 199.745 293.993C200.56 293.677 199.72 295.191 199.638 295.336C198.276 297.747 196.431 299.904 194.869 302.187C192.677 305.391 190.277 308.449 188.032 311.617C186.875 313.249 185.579 314.802 184.727 316.627C184.341 317.456 184.567 317.448 185.224 316.882C187.159 315.217 189.084 313.526 191.148 312.02C192.899 310.743 194.729 309.569 196.521 308.352C196.917 308.084 197.492 307.721 197.999 307.721C199.018 307.721 197.312 313.765 197.18 314.263C196.887 315.366 196.494 316.435 196.172 317.527C196.07 317.874 196.099 317.983 196.441 317.756C197.625 316.966 198.746 316.068 199.907 315.244C200.264 314.99 205.938 311.15 205.978 311.832C206.01 312.369 205.81 313.041 205.253 313.041" stroke="#29D83A" stroke-width="3" stroke-linecap="round"/>
<path d="M125.148 90.0264C126.913 89.6954 128.586 88.6003 130.289 88.0238C130.465 87.9642 132.562 87.1717 132.127 87.7548C131.494 88.6033 130.618 89.3067 129.84 90.0114C128.073 91.6134 126.306 93.2124 124.602 94.8833C123.343 96.1187 119.256 99.4635 120.724 98.4849C125.512 95.2928 130.51 92.4201 135.803 90.1609C136.129 90.0218 137.211 89.5772 136.625 90.3178C134.855 92.557 132.834 94.6047 131.036 96.826C130.629 97.3284 130.224 97.8298 129.84 98.3504C129.729 98.502 129.098 99.1792 129.691 98.7613C132.073 97.0834 134.51 95.5122 137.103 94.1809C137.757 93.8452 138.456 93.4547 139.181 93.2842C139.688 93.1648 138.992 94.2625 138.964 94.3229C138.287 95.762 137.446 97.1281 136.849 98.6044C136.848 98.607 136.713 98.991 136.745 98.978C137.553 98.645 138.388 97.5929 139.106 97.0876C140.501 96.1045 142.311 94.6889 144.052 94.3602C144.877 94.2046 144.449 95.507 144.112 95.6753" stroke="#D82929" stroke-width="3" stroke-linecap="round"/>
<path d="M172.895 92.5818C175.269 90.4419 177.396 88.0526 179.867 86.0138C179.879 86.0037 181.836 84.3576 181.899 84.893C181.942 85.2565 181.79 85.6981 181.667 86.0213C181.028 87.7018 179.994 89.2315 179.022 90.7287C177.064 93.7455 175.194 96.9095 172.985 99.7551C172.95 99.7997 172.488 100.351 172.955 99.7701C173.952 98.5296 175.122 97.4394 176.31 96.3852C178.335 94.5883 180.362 92.7501 182.482 91.065C182.549 91.0113 183.383 90.3283 183.491 90.4597C183.928 90.995 182.418 93.2252 182.161 93.6728C181.34 95.0974 180.436 96.4741 179.62 97.902C179.43 98.2341 179.274 98.6349 179.03 98.9332C178.827 99.1806 179.431 98.4344 179.657 98.2084C179.967 97.8986 185.55 93.0275 185.777 93.5831C186.145 94.4818 185.123 95.931 184.716 96.6243C184.12 97.6397 183.157 98.6726 182.721 99.7626C182.611 100.038 183.141 99.3389 183.386 99.1723C183.722 98.9439 184.199 98.7623 184.462 98.4998" stroke="#D82929" stroke-width="3" stroke-linecap="round"/>
<path d="M133.654 7.72856C135.386 7.72856 137.375 7.43199 138.96 6.85583C140.888 6.1546 134.277 13.4165 135.947 12.2238C138.318 10.5298 140.848 8.7695 143.545 7.63159C144.675 7.15477 143.676 8.36501 143.379 8.78138C142.241 10.3751 140.868 11.7633 139.694 13.3113C139.636 13.3871 139.429 13.5755 139.514 13.5329C140.366 13.1071 141.21 12.6182 142.021 12.1199C144.203 10.7807 146.363 9.37465 148.636 8.19264C149.701 7.63877 148.417 9.57761 148.324 9.70953C146.79 11.8882 144.957 13.9922 143.109 15.9087C142.621 16.4146 143.308 16.0253 143.545 15.8948C145.294 14.9319 146.965 13.8432 148.678 12.8195C148.977 12.6403 152.298 10.4617 152.453 10.7485C152.581 10.9873 152.113 11.6732 151.995 11.8567C151.446 12.7165 150.904 13.5799 150.388 14.4611C150.174 14.8281 149.973 15.2014 149.737 15.5554C149.572 15.8034 150.458 15.1098 150.541 15.0567C151.314 14.5628 152.499 13.5883 153.478 13.5883" stroke="#2940D8" stroke-width="3" stroke-linecap="round"/>
<path d="M244.82 79.3866C244.038 79.5512 243.272 80.033 242.584 80.4124C241.649 80.9287 240.737 81.4982 239.851 82.0954C239.541 82.3045 238.404 83.1274 239.386 82.4721C240.538 81.7046 242.035 80.7847 243.458 80.701C243.912 80.6742 243.831 81.0091 243.714 81.3501C243.279 82.6146 242.446 83.7511 241.795 84.9084C241.42 85.5731 241.019 86.2346 240.725 86.94C240.444 87.6138 240.537 87.8862 241.302 87.5691C242.465 87.0871 243.531 86.503 244.772 86.2227C245.663 86.0216 246.535 85.8502 247 86.7917C247.404 87.609 247.345 88.5461 247.345 89.4324C247.345 90.3517 247.4 91.2896 247.3 92.2053C247.257 92.6104 247.128 93.0235 247.128 93.4315C247.128 93.4943 247.124 93.3058 247.128 93.2432C247.174 92.5875 247.393 91.9432 247.585 91.3198C247.91 90.2608 248.217 89.1619 248.683 88.1542C248.84 87.814 249.119 87.3458 249.532 87.2726C249.976 87.194 250.244 88.074 250.35 88.3465C250.742 89.3557 251.135 90.3521 251.608 91.3278C252.381 92.9217 253.378 94.4257 254.052 96.0642C254.2 96.4233 254.444 97.5628 254.962 97.5628C255.586 97.5628 255.547 97.3994 255.563 96.7333C255.642 93.4082 254.781 90.1161 254.926 86.7877C254.957 86.0749 255.309 86.202 255.864 86.4792C256.763 86.9288 257.514 87.6973 258.28 88.3345C259.167 89.0728 260.081 89.7683 261.085 90.342C261.608 90.6412 262.334 91.1182 262.972 91.1274C263.768 91.1389 262.289 86.842 262.211 86.5513C262.107 86.1682 261.555 84.5743 262.002 84.2112C262.16 84.0831 262.606 84.1517 262.76 84.1631C263.329 84.2053 263.872 84.3201 264.415 84.4997C266.347 85.1396 268.316 86.176 270.417 86.1346C271.979 86.1038 271.873 83.7953 271.439 82.7806C270.941 81.6132 269.934 81.095 268.895 80.5407C268.68 80.4264 269.295 80.2506 269.528 80.18C270.28 79.9516 271.053 79.8127 271.82 79.6431C272.242 79.5498 273.214 79.5468 273.443 79.0901C273.675 78.6261 273.098 78.3788 272.733 78.3207C269.676 77.8337 266.627 78.8578 263.613 79.1702C263.027 79.2311 262.938 79.2002 263.389 78.7215C264.166 77.8954 265.033 77.1644 265.881 76.4134C266.345 76.003 266.806 75.5918 267.288 75.2032C267.552 74.9905 267.872 74.7912 268.069 74.506C268.858 73.3637 269.492 72.1407 270.361 71.0439C270.799 70.4911 271.343 69.9803 271.708 69.3769C272.068 68.7811 271.333 68.9725 270.858 69.0563C269.245 69.3411 267.755 70.135 266.106 70.2945C265.772 70.3268 265.136 70.2448 264.827 70.4107C264.243 70.7256 263.572 70.931 262.94 71.124C262.858 71.1492 262.117 71.4378 262.419 71.2362" stroke="#FBDC13" stroke-width="3" stroke-linecap="round"/>
<path d="M16.3766 407.589C14.0882 407.689 11.7744 408.255 9.47573 408.017C9.23517 407.992 8.47978 407.911 8.35475 407.589C8.20788 407.212 10.8643 406.33 11.0633 406.255C12.807 405.591 14.6334 405.15 16.3701 404.473C16.6074 404.38 17.1499 404.177 16.8302 403.87C16.6367 403.684 16.3577 403.57 16.1304 403.436C15.6392 403.145 15.1716 402.823 14.7178 402.477C14.0336 401.955 13.3547 401.379 12.7707 400.744C12.5731 400.528 12.4111 400.376 12.7221 400.206C13.3578 399.858 14.0577 399.653 14.653 399.231C15.469 398.651 17.2534 397.277 15.8388 396.282C15.0703 395.742 14.1585 395.422 13.2664 395.155C12.7085 394.988 12.0204 394.869 11.5298 394.526C10.7688 393.995 13.4281 392.485 13.9791 392.485C14.7383 392.485 15.5053 392.369 16.2567 392.369C16.4475 392.369 16.3603 392.234 16.2729 392.122C15.6991 391.388 15.0456 390.747 14.5137 389.971C13.3763 388.312 12.3798 386.335 12.2976 384.282C12.293 384.165 12.2195 383.816 12.3916 383.799C12.9181 383.749 13.2926 384.04 13.7005 384.327C14.6769 385.014 16.368 386.45 17.6726 385.798C18.059 385.605 18.2775 385.107 18.4696 384.748C18.6999 384.318 18.8648 383.864 19.0333 383.407C19.1582 383.069 19.2607 382.656 19.4934 382.37C19.8689 381.91 20.138 382.513 20.2385 382.834C20.7815 384.564 21.0536 386.412 21.3239 388.202C21.4413 388.98 21.5446 389.818 21.8617 390.548C22.234 391.404 22.9882 389.639 23.1317 389.401C24.0062 387.949 24.7757 386.435 25.837 385.105C26.2112 384.636 26.7602 384.011 27.4245 384.029C28.0148 384.045 27.9834 385.065 27.9818 385.461C27.9736 387.385 26.6698 388.812 25.675 390.334C25.6327 390.399 25.5771 390.467 25.7009 390.418C26.0937 390.262 26.4505 390.001 26.8089 389.783C28.0963 388.999 29.4282 388.423 30.9106 388.137C31.6389 387.997 32.6622 387.804 33.3534 388.183C33.6326 388.336 33.8659 388.576 34.131 388.753C34.4025 388.934 34.6858 388.825 34.9993 388.814C35.6301 388.793 36.2872 388.775 36.9173 388.818C37.1982 388.837 37.7167 388.933 37.8601 389.219C38.112 389.723 37.0718 390.064 36.8071 390.185C35.9898 390.558 35.1315 390.839 34.3254 391.235C34.0433 391.373 33.6694 391.518 33.4765 391.785C32.7631 392.773 35.8428 393.103 36.1851 393.127C37.3396 393.205 38.4757 393.1 39.6128 392.893C39.9266 392.836 40.8272 392.621 40.5653 392.803C38.7742 394.049 36.6358 394.866 35.0511 396.402C34.4426 396.992 35.1379 397.129 35.6667 397.322C36.3771 397.582 37.1082 397.816 37.792 398.142C38.1867 398.33 38.6169 398.642 38.6765 399.107C38.7576 399.74 37.9013 400.156 37.468 400.436C36.8165 400.857 36.1384 401.083 35.8092 401.835C35.6784 402.134 35.6257 402.456 35.6213 402.781C35.6125 403.432 35.9561 403.57 36.5868 403.556C37.2839 403.54 37.9525 403.286 38.6409 403.19C38.8839 403.156 39.3788 403.153 39.0102 403.51C38.4688 404.035 37.7362 404.341 37.1376 404.79" stroke="#FBDC13" stroke-width="3" stroke-linecap="round"/>
</svg>
