<svg width="57" height="69" viewBox="0 0 57 69" fill="none" xmlns="http://www.w3.org/2000/svg">
<path d="M56.4 34.478C56.2275 36.7941 55.2803 39.3585 53.7935 42.034C52.3053 44.7124 50.2968 47.4661 48.0511 50.1441C43.5596 55.5004 38.1587 60.5078 34.1877 63.9442C31.1346 66.5862 26.7368 66.6915 23.6211 64.1449C19.9969 61.1827 15.2122 56.9079 10.9374 51.9093C6.65658 46.9038 2.92261 41.2131 1.34719 35.4205C1.16994 34.7687 1.09736 34.0861 1.11029 33.3953C1.28359 24.1343 3.64547 15.9286 8.25076 10.0521C12.8401 4.19585 19.6968 0.6 29 0.6C38.4826 0.6 45.2994 4.37746 49.7651 10.4599C54.2456 16.5625 56.3967 25.0396 56.4 34.478Z" fill="url(#paint0_linear_1_288)" stroke="black" stroke-width="1.2"/>
<path d="M32.2756 34.2043C32.8541 39.4443 32.0946 45.7485 36.6039 45.2506C41.1132 44.7528 52.7329 34.6886 52.1544 29.4487C51.5759 24.2087 49.2702 21.2155 44.7609 21.7133C40.2516 22.2112 31.6971 28.9644 32.2756 34.2043Z" fill="#D9D9D9"/>
<path d="M32.2756 34.2043C32.8541 39.4443 32.0946 45.7485 36.6039 45.2506C41.1132 44.7528 52.7329 34.6886 52.1544 29.4487C51.5759 24.2087 49.2702 21.2155 44.7609 21.7133C40.2516 22.2112 31.6971 28.9644 32.2756 34.2043Z" fill="#433878"/>
<path d="M32.2756 34.2043C32.8541 39.4443 32.0946 45.7485 36.6039 45.2506C41.1132 44.7528 52.7329 34.6886 52.1544 29.4487C51.5759 24.2087 49.2702 21.2155 44.7609 21.7133C40.2516 22.2112 31.6971 28.9644 32.2756 34.2043Z" fill="#D9D9D9"/>
<path d="M32.2756 34.2043C32.8541 39.4443 32.0946 45.7485 36.6039 45.2506C41.1132 44.7528 52.7329 34.6886 52.1544 29.4487C51.5759 24.2087 49.2702 21.2155 44.7609 21.7133C40.2516 22.2112 31.6971 28.9644 32.2756 34.2043Z" fill="#433878"/>
<path d="M32.5241 34.1769C32.6396 35.2228 32.7021 36.3118 32.7632 37.3736C32.779 37.6499 32.7948 37.9243 32.8114 38.1957C32.892 39.5161 32.9915 40.7637 33.2106 41.8288C33.4305 42.898 33.7643 43.7475 34.2879 44.2995C34.7976 44.8367 35.5137 45.1194 36.5764 45.0021C37.6432 44.8843 39.1738 44.1896 40.8827 43.0977C42.5821 42.0119 44.4268 40.5538 46.1147 38.9469C47.8033 37.3393 49.3277 35.5899 50.3921 33.9237C51.4631 32.2473 52.0408 30.6977 51.9059 29.4761C51.6193 26.88 50.9082 24.8823 49.7462 23.597C48.5961 22.3248 46.9765 21.7202 44.7883 21.9618C43.7068 22.0812 42.3595 22.5801 40.9468 23.3572C39.5378 24.1323 38.0799 25.1751 36.779 26.365C35.4775 27.5555 34.34 28.8868 33.565 30.2365C32.7888 31.5884 32.3874 32.9388 32.5241 34.1769Z" stroke="black" stroke-width="0.5"/>
<circle cx="3.5" cy="3.5" r="3.35" transform="matrix(-1 0 0 1 49.3159 24.4479)" fill="#FFE1FF" stroke="black" stroke-width="0.3"/>
<circle cx="2.5" cy="2.5" r="2.35" transform="matrix(-1 0 0 1 44.3159 31.4479)" fill="#FFE1FF" stroke="black" stroke-width="0.3"/>
<path d="M26.4151 34.7564C25.8366 39.9964 26.5962 46.3006 22.0869 45.8027C17.5776 45.3048 5.9578 35.2407 6.53633 30.0008C7.11486 24.7608 9.42057 21.7675 13.9299 22.2654C18.4392 22.7633 26.9937 29.5165 26.4151 34.7564Z" fill="#D9D9D9"/>
<path d="M26.4151 34.7564C25.8366 39.9964 26.5962 46.3006 22.0869 45.8027C17.5776 45.3048 5.9578 35.2407 6.53633 30.0008C7.11486 24.7608 9.42057 21.7675 13.9299 22.2654C18.4392 22.7633 26.9937 29.5165 26.4151 34.7564Z" fill="#433878"/>
<path d="M26.4151 34.7564C25.8366 39.9964 26.5962 46.3006 22.0869 45.8027C17.5776 45.3048 5.9578 35.2407 6.53633 30.0008C7.11486 24.7608 9.42057 21.7675 13.9299 22.2654C18.4392 22.7633 26.9937 29.5165 26.4151 34.7564Z" fill="#D9D9D9"/>
<path d="M26.4151 34.7564C25.8366 39.9964 26.5962 46.3006 22.0869 45.8027C17.5776 45.3048 5.9578 35.2407 6.53633 30.0008C7.11486 24.7608 9.42057 21.7675 13.9299 22.2654C18.4392 22.7633 26.9937 29.5165 26.4151 34.7564Z" fill="#433878"/>
<path d="M26.1666 34.729C26.0512 35.7749 25.9886 36.8639 25.9276 37.9257C25.9117 38.202 25.8959 38.4764 25.8794 38.7478C25.7987 40.0682 25.6992 41.3158 25.4802 42.3809C25.2602 43.4501 24.9264 44.2996 24.4028 44.8516C23.8931 45.3888 23.177 45.6715 22.1143 45.5542C21.0476 45.4364 19.5169 44.7417 17.808 43.6498C16.1086 42.564 14.264 41.1058 12.576 39.499C10.8875 37.8914 9.36302 36.142 8.2986 34.4758C7.22765 32.7994 6.64995 31.2498 6.78482 30.0282C7.07144 27.4321 7.78253 25.4344 8.94451 24.1491C10.0946 22.8769 11.7142 22.2723 13.9024 22.5139C14.984 22.6333 16.3312 23.1322 17.7439 23.9093C19.1529 24.6844 20.6108 25.7272 21.9117 26.9171C23.2132 28.1075 24.3507 29.4389 25.1257 30.7886C25.9019 32.1405 26.3033 33.4909 26.1666 34.729Z" stroke="black" stroke-width="0.5"/>
<circle cx="12.8748" cy="28.5" r="3.35" fill="#FFE1FF" stroke="black" stroke-width="0.3"/>
<circle cx="16.8748" cy="34.5" r="2.35" fill="#FFE1FF" stroke="black" stroke-width="0.3"/>
<defs>
<linearGradient id="paint0_linear_1_288" x1="29" y1="0" x2="29" y2="69" gradientUnits="userSpaceOnUse">
<stop stop-color="#7CE462"/>
<stop offset="0.5" stop-color="#D2FF72"/>
</linearGradient>
</defs>
</svg>
