<svg width="92" height="70" viewBox="0 0 92 70" fill="none" xmlns="http://www.w3.org/2000/svg">
<rect x="0.25" y="8.91669" width="91.5" height="60.8333" fill="#FFB0B0" stroke="black" stroke-width="0.5"/>
<path d="M0.25 0.25H43.2847L54.4796 9.08333H0.25V0.25Z" fill="#FFB0B0" stroke="black" stroke-width="0.5"/>
<path d="M39.4678 45.5733C38.7478 45.5733 37.9945 45.4133 37.2078 45.0933C36.4345 44.7733 35.7611 44.2133 35.1878 43.4133L36.8878 41.5933C37.2611 42.06 37.6611 42.42 38.0878 42.6733C38.5145 42.9133 38.9411 43.0333 39.3678 43.0333C40.0345 43.0333 40.5345 42.86 40.8678 42.5133C41.2145 42.1666 41.3878 41.5466 41.3878 40.6533V34.7533H36.2878V32.2933H44.3278V40.8933C44.3278 41.7466 44.1678 42.5266 43.8478 43.2333C43.5411 43.94 43.0345 44.5066 42.3278 44.9333C41.6345 45.36 40.6811 45.5733 39.4678 45.5733ZM51.96 45.5733C51.08 45.5733 50.2066 45.4133 49.34 45.0933C48.4866 44.7733 47.7066 44.3066 47 43.6933L48.7 41.6733C49.1933 42.0733 49.7333 42.4 50.32 42.6533C50.92 42.9066 51.5333 43.0333 52.16 43.0333C52.7866 43.0333 53.2466 42.9266 53.54 42.7133C53.8466 42.5 54 42.2266 54 41.8933C54 41.5866 53.92 41.3466 53.76 41.1733C53.6 40.9866 53.3666 40.8266 53.06 40.6933C52.7533 40.5466 52.3933 40.3866 51.98 40.2133L50.3 39.4933C49.82 39.3066 49.3666 39.06 48.94 38.7533C48.5133 38.4333 48.1666 38.0466 47.9 37.5933C47.6466 37.1266 47.52 36.5733 47.52 35.9333C47.52 35.2133 47.72 34.5666 48.12 33.9933C48.5333 33.4066 49.0933 32.94 49.8 32.5933C50.52 32.2333 51.3533 32.0533 52.3 32.0533C53.0866 32.0533 53.86 32.2 54.62 32.4933C55.38 32.7866 56.0533 33.2133 56.64 33.7733L55.14 35.6333C54.6866 35.3 54.2333 35.0466 53.78 34.8733C53.3266 34.6866 52.78 34.5933 52.14 34.5933C51.66 34.5933 51.2666 34.6933 50.96 34.8933C50.6533 35.0933 50.5 35.3866 50.5 35.7733C50.5 36.0266 50.5933 36.24 50.78 36.4133C50.9666 36.5866 51.22 36.74 51.54 36.8733C51.86 37.0066 52.2266 37.1533 52.64 37.3133L54.22 37.9933C54.8066 38.2066 55.3066 38.4733 55.72 38.7933C56.1333 39.1 56.4533 39.48 56.68 39.9333C56.9066 40.3866 57.02 40.92 57.02 41.5333C57.02 42.2533 56.82 42.92 56.42 43.5333C56.0333 44.1466 55.46 44.64 54.7 45.0133C53.9533 45.3866 53.04 45.5733 51.96 45.5733Z" fill="black"/>
<mask id="path-4-inside-1_4_218" fill="white">
<path fill-rule="evenodd" clip-rule="evenodd" d="M83.5047 18.0583C83.5047 18.5449 83.3114 19.0116 82.9673 19.3557C82.6232 19.6998 82.1565 19.8932 81.6698 19.8932C81.1832 19.8932 80.7165 19.6999 80.3724 19.3557C80.0282 19.0116 79.8349 18.5449 79.8349 18.0583L79.8399 8.84785L79.8399 8.84731C79.8399 8.73659 79.8839 8.63041 79.9622 8.55212C80.0405 8.47384 80.1467 8.42986 80.2574 8.42986C80.3681 8.42986 80.4743 8.47384 80.5526 8.55212C80.6276 8.62714 80.6711 8.72776 80.6746 8.83344H82.6748C82.6712 8.1973 82.4169 7.588 81.9668 7.13791C81.5134 6.68455 80.8985 6.42986 80.2574 6.42986C79.6162 6.42986 79.0013 6.68455 78.548 7.13791C78.0946 7.59127 77.8399 8.20616 77.8399 8.84731L77.8349 18.0577L77.8349 18.0583C77.8349 19.0753 78.239 20.0508 78.9581 20.77C79.6773 21.4891 80.6528 21.8932 81.6698 21.8932C82.6869 21.8932 83.6623 21.4891 84.3815 20.7699C85.1007 20.0508 85.5047 19.0753 85.5047 18.0583V8.85232C85.5047 7.45931 84.9514 6.12335 83.9664 5.13834C82.9814 4.15333 81.6454 3.59996 80.2524 3.59996C78.8594 3.59996 77.5234 4.15333 76.5384 5.13834C75.5534 6.12335 75 7.45931 75 8.85232L75 18.0583C75 18.6105 75.4477 19.0583 76 19.0583C76.5523 19.0583 77 18.6105 77 18.0583L77 8.85232C77 7.98974 77.3427 7.16249 77.9526 6.55255C78.5625 5.94261 79.3898 5.59996 80.2524 5.59996C81.115 5.59996 81.9422 5.94261 82.5521 6.55255C83.1621 7.16249 83.5047 7.98974 83.5047 8.85232V18.0583Z"/>
</mask>
<path fill-rule="evenodd" clip-rule="evenodd" d="M83.5047 18.0583C83.5047 18.5449 83.3114 19.0116 82.9673 19.3557C82.6232 19.6998 82.1565 19.8932 81.6698 19.8932C81.1832 19.8932 80.7165 19.6999 80.3724 19.3557C80.0282 19.0116 79.8349 18.5449 79.8349 18.0583L79.8399 8.84785L79.8399 8.84731C79.8399 8.73659 79.8839 8.63041 79.9622 8.55212C80.0405 8.47384 80.1467 8.42986 80.2574 8.42986C80.3681 8.42986 80.4743 8.47384 80.5526 8.55212C80.6276 8.62714 80.6711 8.72776 80.6746 8.83344H82.6748C82.6712 8.1973 82.4169 7.588 81.9668 7.13791C81.5134 6.68455 80.8985 6.42986 80.2574 6.42986C79.6162 6.42986 79.0013 6.68455 78.548 7.13791C78.0946 7.59127 77.8399 8.20616 77.8399 8.84731L77.8349 18.0577L77.8349 18.0583C77.8349 19.0753 78.239 20.0508 78.9581 20.77C79.6773 21.4891 80.6528 21.8932 81.6698 21.8932C82.6869 21.8932 83.6623 21.4891 84.3815 20.7699C85.1007 20.0508 85.5047 19.0753 85.5047 18.0583V8.85232C85.5047 7.45931 84.9514 6.12335 83.9664 5.13834C82.9814 4.15333 81.6454 3.59996 80.2524 3.59996C78.8594 3.59996 77.5234 4.15333 76.5384 5.13834C75.5534 6.12335 75 7.45931 75 8.85232L75 18.0583C75 18.6105 75.4477 19.0583 76 19.0583C76.5523 19.0583 77 18.6105 77 18.0583L77 8.85232C77 7.98974 77.3427 7.16249 77.9526 6.55255C78.5625 5.94261 79.3898 5.59996 80.2524 5.59996C81.115 5.59996 81.9422 5.94261 82.5521 6.55255C83.1621 7.16249 83.5047 7.98974 83.5047 8.85232V18.0583Z" fill="#FFD09B"/>
<path d="M82.9673 19.3557L83.1794 19.5679L83.1794 19.5679L82.9673 19.3557ZM83.5047 18.0583L83.8047 18.0583V18.0583H83.5047ZM80.3724 19.3557L80.5845 19.1436L80.5845 19.1436L80.3724 19.3557ZM79.8349 18.0583L79.5349 18.0581L79.5349 18.0583L79.8349 18.0583ZM79.8399 8.84785L79.5399 8.84759L79.5399 8.84769L79.8399 8.84785ZM79.8399 8.84731L80.1399 8.84757V8.84731H79.8399ZM79.9622 8.55212L80.1743 8.76426L80.1743 8.76426L79.9622 8.55212ZM80.2574 8.42986L80.2574 8.12986L80.2574 8.12986L80.2574 8.42986ZM80.6746 8.83344L80.3748 8.8434L80.3844 9.13344H80.6746V8.83344ZM82.6748 8.83344V9.13344H82.9765L82.9748 8.83172L82.6748 8.83344ZM81.9668 7.13791L82.1789 6.92578L82.1789 6.92578L81.9668 7.13791ZM80.2574 6.42986L80.2574 6.72986H80.2574V6.42986ZM78.548 7.13791L78.3359 6.92578L78.3359 6.92578L78.548 7.13791ZM77.8399 8.84731L78.1399 8.84747L78.1399 8.84731L77.8399 8.84731ZM77.8349 18.0577L78.1349 18.0581L78.1349 18.0579L77.8349 18.0577ZM77.8349 18.0583L77.5349 18.0579L77.5349 18.0583L77.8349 18.0583ZM78.9581 20.77L79.1703 20.5578L79.1703 20.5578L78.9581 20.77ZM84.3815 20.7699L84.1694 20.5578L84.1694 20.5578L84.3815 20.7699ZM83.9664 5.13834L83.7542 5.35047L83.7542 5.35047L83.9664 5.13834ZM80.2524 3.59996L80.2524 3.89996H80.2524L80.2524 3.59996ZM76.5384 5.13834L76.3263 4.92621L76.3263 4.92621L76.5384 5.13834ZM75 8.85232L75.3 8.85232V8.85232H75ZM75 18.0583L74.7 18.0583L74.7 18.0583L75 18.0583ZM77 18.0583L77.3 18.0583L77.3 18.0583L77 18.0583ZM77 8.85232L76.7 8.85232V8.85232L77 8.85232ZM77.9526 6.55255L77.7405 6.34042L77.7405 6.34042L77.9526 6.55255ZM80.2524 5.59996L80.2524 5.29996L80.2524 5.29996L80.2524 5.59996ZM83.1794 19.5679C83.5798 19.1675 83.8047 18.6245 83.8047 18.0583L83.2047 18.0583C83.2047 18.4653 83.043 18.8558 82.7552 19.1436L83.1794 19.5679ZM81.6698 20.1932C82.236 20.1932 82.7791 19.9682 83.1794 19.5679L82.7552 19.1436C82.4673 19.4315 82.0769 19.5932 81.6698 19.5932V20.1932ZM80.1602 19.5679C80.5606 19.9682 81.1036 20.1932 81.6698 20.1932V19.5932C81.2627 19.5932 80.8723 19.4315 80.5845 19.1436L80.1602 19.5679ZM79.5349 18.0583C79.5349 18.6245 79.7599 19.1675 80.1602 19.5679L80.5845 19.1436C80.2966 18.8558 80.1349 18.4653 80.1349 18.0583L79.5349 18.0583ZM79.5399 8.84769L79.5349 18.0581L80.1349 18.0584L80.1399 8.84802L79.5399 8.84769ZM79.5399 8.84705L79.5399 8.84759L80.1399 8.84812L80.1399 8.84757L79.5399 8.84705ZM79.7501 8.33999C79.6155 8.47454 79.5399 8.65703 79.5399 8.84731H80.1399C80.1399 8.81616 80.1523 8.78628 80.1743 8.76426L79.7501 8.33999ZM80.2574 8.12986C80.0671 8.12986 79.8846 8.20544 79.7501 8.33999L80.1743 8.76426C80.1964 8.74223 80.2262 8.72986 80.2574 8.72986L80.2574 8.12986ZM80.7647 8.33999C80.6302 8.20544 80.4477 8.12986 80.2574 8.12986V8.72986C80.2885 8.72986 80.3184 8.74223 80.3404 8.76426L80.7647 8.33999ZM80.9744 8.82347C80.9684 8.64184 80.8936 8.46891 80.7647 8.33999L80.3404 8.76426C80.3615 8.78536 80.3738 8.81367 80.3748 8.8434L80.9744 8.82347ZM80.6746 9.13344H82.6748V8.53344H80.6746V9.13344ZM81.7547 7.35004C82.1489 7.74428 82.3716 8.27796 82.3748 8.83515L82.9748 8.83172C82.9707 8.11663 82.6849 7.43172 82.1789 6.92578L81.7547 7.35004ZM80.2574 6.72986C80.819 6.72986 81.3576 6.95294 81.7547 7.35004L82.1789 6.92578C81.6693 6.41616 80.9781 6.12986 80.2574 6.12986V6.72986ZM78.7601 7.35004C79.1572 6.95294 79.6958 6.72986 80.2574 6.72986L80.2574 6.12986C79.5367 6.12986 78.8455 6.41616 78.3359 6.92578L78.7601 7.35004ZM78.1399 8.84731C78.1399 8.28573 78.363 7.74714 78.7601 7.35004L78.3359 6.92578C77.8262 7.4354 77.5399 8.1266 77.5399 8.84731L78.1399 8.84731ZM78.1349 18.0579L78.1399 8.84747L77.5399 8.84715L77.5349 18.0576L78.1349 18.0579ZM78.1349 18.0587L78.1349 18.0581L77.5349 18.0573L77.5349 18.0579L78.1349 18.0587ZM79.1703 20.5578C78.5074 19.8949 78.1349 18.9958 78.1349 18.0583L77.5349 18.0583C77.5349 19.1549 77.9706 20.2066 78.746 20.9821L79.1703 20.5578ZM81.6698 21.5932C80.7323 21.5932 79.8332 21.2207 79.1703 20.5578L78.746 20.9821C79.5215 21.7575 80.5732 22.1932 81.6698 22.1932V21.5932ZM84.1694 20.5578C83.5065 21.2207 82.6073 21.5932 81.6698 21.5932V22.1932C82.7665 22.1932 83.8182 21.7575 84.5937 20.9821L84.1694 20.5578ZM85.2047 18.0583C85.2047 18.9958 84.8323 19.8949 84.1694 20.5578L84.5937 20.9821C85.3691 20.2066 85.8047 19.1549 85.8047 18.0583H85.2047ZM85.2047 8.85232V18.0583H85.8047V8.85232H85.2047ZM83.7542 5.35047C84.683 6.27922 85.2047 7.53887 85.2047 8.85232H85.8047C85.8047 7.37974 85.2198 5.96747 84.1785 4.9262L83.7542 5.35047ZM80.2524 3.89996C81.5658 3.89996 82.8255 4.42172 83.7542 5.35047L84.1785 4.9262C83.1372 3.88493 81.725 3.29996 80.2524 3.29996L80.2524 3.89996ZM76.7505 5.35047C77.6793 4.42172 78.9389 3.89996 80.2524 3.89996V3.29996C78.7798 3.29996 77.3675 3.88494 76.3263 4.92621L76.7505 5.35047ZM75.3 8.85232C75.3 7.53887 75.8218 6.27922 76.7505 5.35047L76.3263 4.92621C75.285 5.96748 74.7 7.37974 74.7 8.85232H75.3ZM75.3 18.0583L75.3 8.85232L74.7 8.85232L74.7 18.0583L75.3 18.0583ZM76 18.7583C75.6134 18.7583 75.3 18.4449 75.3 18.0583L74.7 18.0583C74.7 18.7762 75.282 19.3583 76 19.3583V18.7583ZM76.7 18.0583C76.7 18.4449 76.3866 18.7583 76 18.7583V19.3583C76.718 19.3583 77.3 18.7762 77.3 18.0583L76.7 18.0583ZM76.7 8.85232L76.7 18.0583L77.3 18.0583L77.3 8.85232L76.7 8.85232ZM77.7405 6.34042C77.0743 7.00662 76.7 7.91017 76.7 8.85232L77.3 8.85232C77.3 8.0693 77.6111 7.31836 78.1647 6.76468L77.7405 6.34042ZM80.2524 5.29996C79.3102 5.29996 78.4067 5.67422 77.7405 6.34042L78.1647 6.76468C78.7184 6.21101 79.4694 5.89996 80.2524 5.89996L80.2524 5.29996ZM82.7643 6.34042C82.0981 5.67422 81.1945 5.29996 80.2524 5.29996L80.2524 5.89996C81.0354 5.89996 81.7863 6.21101 82.34 6.76468L82.7643 6.34042ZM83.8047 8.85232C83.8047 7.91017 83.4305 7.00662 82.7643 6.34042L82.34 6.76468C82.8937 7.31836 83.2047 8.0693 83.2047 8.85232H83.8047ZM83.8047 18.0583V8.85232H83.2047V18.0583H83.8047Z" fill="black" mask="url(#path-4-inside-1_4_218)"/>
<mask id="path-6-inside-2_4_218" fill="white">
<path fill-rule="evenodd" clip-rule="evenodd" d="M70.5047 18.0583C70.5047 18.5449 70.3114 19.0116 69.9673 19.3557C69.6232 19.6998 69.1565 19.8932 68.6698 19.8932C68.1832 19.8932 67.7165 19.6999 67.3724 19.3557C67.0282 19.0116 66.8349 18.5449 66.8349 18.0583L66.8399 8.84785L66.8399 8.84731C66.8399 8.73659 66.8839 8.63041 66.9622 8.55212C67.0405 8.47384 67.1467 8.42986 67.2574 8.42986C67.3681 8.42986 67.4743 8.47384 67.5526 8.55212C67.6276 8.62714 67.6711 8.72776 67.6746 8.83344H69.6748C69.6712 8.1973 69.4169 7.588 68.9668 7.13791C68.5134 6.68455 67.8985 6.42986 67.2574 6.42986C66.6162 6.42986 66.0013 6.68455 65.548 7.13791C65.0946 7.59127 64.8399 8.20616 64.8399 8.84731L64.8349 18.0577L64.8349 18.0583C64.8349 19.0753 65.239 20.0508 65.9581 20.77C66.6773 21.4891 67.6528 21.8932 68.6698 21.8932C69.6869 21.8932 70.6623 21.4891 71.3815 20.7699C72.1007 20.0508 72.5047 19.0753 72.5047 18.0583V8.85232C72.5047 7.45931 71.9514 6.12335 70.9664 5.13834C69.9814 4.15333 68.6454 3.59996 67.2524 3.59996C65.8594 3.59996 64.5234 4.15333 63.5384 5.13834C62.5534 6.12335 62 7.45931 62 8.85232L62 18.0583C62 18.6105 62.4477 19.0583 63 19.0583C63.5523 19.0583 64 18.6105 64 18.0583L64 8.85232C64 7.98974 64.3427 7.16249 64.9526 6.55255C65.5625 5.94261 66.3898 5.59996 67.2524 5.59996C68.115 5.59996 68.9422 5.94261 69.5521 6.55255C70.1621 7.16249 70.5047 7.98974 70.5047 8.85232V18.0583Z"/>
</mask>
<path fill-rule="evenodd" clip-rule="evenodd" d="M70.5047 18.0583C70.5047 18.5449 70.3114 19.0116 69.9673 19.3557C69.6232 19.6998 69.1565 19.8932 68.6698 19.8932C68.1832 19.8932 67.7165 19.6999 67.3724 19.3557C67.0282 19.0116 66.8349 18.5449 66.8349 18.0583L66.8399 8.84785L66.8399 8.84731C66.8399 8.73659 66.8839 8.63041 66.9622 8.55212C67.0405 8.47384 67.1467 8.42986 67.2574 8.42986C67.3681 8.42986 67.4743 8.47384 67.5526 8.55212C67.6276 8.62714 67.6711 8.72776 67.6746 8.83344H69.6748C69.6712 8.1973 69.4169 7.588 68.9668 7.13791C68.5134 6.68455 67.8985 6.42986 67.2574 6.42986C66.6162 6.42986 66.0013 6.68455 65.548 7.13791C65.0946 7.59127 64.8399 8.20616 64.8399 8.84731L64.8349 18.0577L64.8349 18.0583C64.8349 19.0753 65.239 20.0508 65.9581 20.77C66.6773 21.4891 67.6528 21.8932 68.6698 21.8932C69.6869 21.8932 70.6623 21.4891 71.3815 20.7699C72.1007 20.0508 72.5047 19.0753 72.5047 18.0583V8.85232C72.5047 7.45931 71.9514 6.12335 70.9664 5.13834C69.9814 4.15333 68.6454 3.59996 67.2524 3.59996C65.8594 3.59996 64.5234 4.15333 63.5384 5.13834C62.5534 6.12335 62 7.45931 62 8.85232L62 18.0583C62 18.6105 62.4477 19.0583 63 19.0583C63.5523 19.0583 64 18.6105 64 18.0583L64 8.85232C64 7.98974 64.3427 7.16249 64.9526 6.55255C65.5625 5.94261 66.3898 5.59996 67.2524 5.59996C68.115 5.59996 68.9422 5.94261 69.5521 6.55255C70.1621 7.16249 70.5047 7.98974 70.5047 8.85232V18.0583Z" fill="#B7E0FF"/>
<path d="M69.9673 19.3557L70.1794 19.5679L70.1794 19.5679L69.9673 19.3557ZM70.5047 18.0583L70.8047 18.0583V18.0583H70.5047ZM67.3724 19.3557L67.5845 19.1436L67.5845 19.1436L67.3724 19.3557ZM66.8349 18.0583L66.5349 18.0581L66.5349 18.0583L66.8349 18.0583ZM66.8399 8.84785L66.5399 8.84759L66.5399 8.84769L66.8399 8.84785ZM66.8399 8.84731L67.1399 8.84757V8.84731H66.8399ZM66.9622 8.55212L67.1743 8.76426L67.1743 8.76426L66.9622 8.55212ZM67.2574 8.42986L67.2574 8.12986L67.2574 8.12986L67.2574 8.42986ZM67.6746 8.83344L67.3748 8.8434L67.3844 9.13344H67.6746V8.83344ZM69.6748 8.83344V9.13344H69.9765L69.9748 8.83172L69.6748 8.83344ZM68.9668 7.13791L69.1789 6.92578L69.1789 6.92578L68.9668 7.13791ZM67.2574 6.42986L67.2574 6.72986H67.2574V6.42986ZM65.548 7.13791L65.3359 6.92578L65.3359 6.92578L65.548 7.13791ZM64.8399 8.84731L65.1399 8.84747L65.1399 8.84731L64.8399 8.84731ZM64.8349 18.0577L65.1349 18.0581L65.1349 18.0579L64.8349 18.0577ZM64.8349 18.0583L64.5349 18.0579L64.5349 18.0583L64.8349 18.0583ZM65.9581 20.77L66.1703 20.5578L66.1703 20.5578L65.9581 20.77ZM71.3815 20.7699L71.1694 20.5578L71.1694 20.5578L71.3815 20.7699ZM70.9664 5.13834L70.7542 5.35047L70.7542 5.35047L70.9664 5.13834ZM67.2524 3.59996L67.2524 3.89996H67.2524L67.2524 3.59996ZM63.5384 5.13834L63.3263 4.92621L63.3263 4.92621L63.5384 5.13834ZM62 8.85232L62.3 8.85232V8.85232H62ZM62 18.0583L61.7 18.0583L61.7 18.0583L62 18.0583ZM64 18.0583L64.3 18.0583L64.3 18.0583L64 18.0583ZM64 8.85232L63.7 8.85232L63.7 8.85232L64 8.85232ZM64.9526 6.55255L64.7405 6.34042L64.7405 6.34042L64.9526 6.55255ZM67.2524 5.59996L67.2524 5.29996L67.2524 5.29996L67.2524 5.59996ZM70.1794 19.5679C70.5798 19.1675 70.8047 18.6245 70.8047 18.0583L70.2047 18.0583C70.2047 18.4653 70.043 18.8558 69.7552 19.1436L70.1794 19.5679ZM68.6698 20.1932C69.236 20.1932 69.7791 19.9682 70.1794 19.5679L69.7552 19.1436C69.4673 19.4315 69.0769 19.5932 68.6698 19.5932V20.1932ZM67.1602 19.5679C67.5606 19.9682 68.1036 20.1932 68.6698 20.1932V19.5932C68.2627 19.5932 67.8723 19.4315 67.5845 19.1436L67.1602 19.5679ZM66.5349 18.0583C66.5349 18.6245 66.7599 19.1675 67.1602 19.5679L67.5845 19.1436C67.2966 18.8558 67.1349 18.4653 67.1349 18.0583L66.5349 18.0583ZM66.5399 8.84769L66.5349 18.0581L67.1349 18.0584L67.1399 8.84802L66.5399 8.84769ZM66.5399 8.84705L66.5399 8.84759L67.1399 8.84812L67.1399 8.84757L66.5399 8.84705ZM66.7501 8.33999C66.6155 8.47454 66.5399 8.65703 66.5399 8.84731H67.1399C67.1399 8.81616 67.1523 8.78628 67.1743 8.76426L66.7501 8.33999ZM67.2574 8.12986C67.0671 8.12986 66.8846 8.20544 66.7501 8.33999L67.1743 8.76426C67.1964 8.74223 67.2262 8.72986 67.2574 8.72986L67.2574 8.12986ZM67.7647 8.33999C67.6302 8.20544 67.4477 8.12986 67.2574 8.12986V8.72986C67.2885 8.72986 67.3184 8.74223 67.3404 8.76426L67.7647 8.33999ZM67.9744 8.82347C67.9684 8.64184 67.8936 8.46891 67.7647 8.33999L67.3404 8.76426C67.3615 8.78536 67.3738 8.81367 67.3748 8.8434L67.9744 8.82347ZM67.6746 9.13344H69.6748V8.53344H67.6746V9.13344ZM68.7547 7.35004C69.1489 7.74428 69.3716 8.27796 69.3748 8.83515L69.9748 8.83172C69.9707 8.11663 69.6849 7.43172 69.1789 6.92578L68.7547 7.35004ZM67.2574 6.72986C67.819 6.72986 68.3576 6.95294 68.7547 7.35004L69.1789 6.92578C68.6693 6.41616 67.9781 6.12986 67.2574 6.12986V6.72986ZM65.7601 7.35004C66.1572 6.95294 66.6958 6.72986 67.2574 6.72986L67.2574 6.12986C66.5367 6.12986 65.8455 6.41616 65.3359 6.92578L65.7601 7.35004ZM65.1399 8.84731C65.1399 8.28573 65.363 7.74714 65.7601 7.35004L65.3359 6.92578C64.8262 7.4354 64.5399 8.1266 64.5399 8.84731L65.1399 8.84731ZM65.1349 18.0579L65.1399 8.84747L64.5399 8.84715L64.5349 18.0576L65.1349 18.0579ZM65.1349 18.0587L65.1349 18.0581L64.5349 18.0573L64.5349 18.0579L65.1349 18.0587ZM66.1703 20.5578C65.5074 19.8949 65.1349 18.9958 65.1349 18.0583L64.5349 18.0583C64.5349 19.1549 64.9706 20.2066 65.746 20.9821L66.1703 20.5578ZM68.6698 21.5932C67.7323 21.5932 66.8332 21.2207 66.1703 20.5578L65.746 20.9821C66.5215 21.7575 67.5732 22.1932 68.6698 22.1932V21.5932ZM71.1694 20.5578C70.5065 21.2207 69.6073 21.5932 68.6698 21.5932V22.1932C69.7665 22.1932 70.8182 21.7575 71.5937 20.9821L71.1694 20.5578ZM72.2047 18.0583C72.2047 18.9958 71.8323 19.8949 71.1694 20.5578L71.5937 20.9821C72.3691 20.2066 72.8047 19.1549 72.8047 18.0583H72.2047ZM72.2047 8.85232V18.0583H72.8047V8.85232H72.2047ZM70.7542 5.35047C71.683 6.27922 72.2047 7.53887 72.2047 8.85232H72.8047C72.8047 7.37974 72.2198 5.96747 71.1785 4.9262L70.7542 5.35047ZM67.2524 3.89996C68.5658 3.89996 69.8255 4.42172 70.7542 5.35047L71.1785 4.9262C70.1372 3.88493 68.725 3.29996 67.2524 3.29996L67.2524 3.89996ZM63.7505 5.35047C64.6793 4.42172 65.9389 3.89996 67.2524 3.89996V3.29996C65.7798 3.29996 64.3675 3.88494 63.3263 4.92621L63.7505 5.35047ZM62.3 8.85232C62.3 7.53887 62.8218 6.27922 63.7505 5.35047L63.3263 4.92621C62.285 5.96748 61.7 7.37974 61.7 8.85232H62.3ZM62.3 18.0583L62.3 8.85232L61.7 8.85232L61.7 18.0583L62.3 18.0583ZM63 18.7583C62.6134 18.7583 62.3 18.4449 62.3 18.0583L61.7 18.0583C61.7 18.7762 62.282 19.3583 63 19.3583V18.7583ZM63.7 18.0583C63.7 18.4449 63.3866 18.7583 63 18.7583V19.3583C63.718 19.3583 64.3 18.7762 64.3 18.0583L63.7 18.0583ZM63.7 8.85232L63.7 18.0583L64.3 18.0583L64.3 8.85232L63.7 8.85232ZM64.7405 6.34042C64.0743 7.00662 63.7 7.91017 63.7 8.85232L64.3 8.85232C64.3 8.0693 64.6111 7.31836 65.1647 6.76468L64.7405 6.34042ZM67.2524 5.29996C66.3102 5.29996 65.4067 5.67422 64.7405 6.34042L65.1647 6.76468C65.7184 6.21101 66.4694 5.89996 67.2524 5.89996L67.2524 5.29996ZM69.7643 6.34042C69.0981 5.67422 68.1945 5.29996 67.2524 5.29996L67.2524 5.89996C68.0354 5.89996 68.7863 6.21101 69.34 6.76468L69.7643 6.34042ZM70.8047 8.85232C70.8047 7.91017 70.4305 7.00662 69.7643 6.34042L69.34 6.76468C69.8937 7.31836 70.2047 8.0693 70.2047 8.85232H70.8047ZM70.8047 18.0583V8.85232H70.2047V18.0583H70.8047Z" fill="black" mask="url(#path-6-inside-2_4_218)"/>
</svg>
